<svg width="294" height="95" viewBox="0 0 294 95" fill="none" xmlns="http://www.w3.org/2000/svg">
<path d="M68.6633 1.7875C68.5098 1.79227 68.0552 2.00501 67.2996 2.42553C66.0915 3.1248 64.2773 4.10761 61.857 5.37393C59.586 6.50328 57.1595 7.57136 54.5774 8.57802C52.1448 9.44768 50.0837 9.90875 48.3943 9.96122C48.5643 10.4853 47.9726 11.2317 46.6189 12.2002C45.2654 13.1687 43.8333 14.0736 42.3219 14.9146C40.9602 15.6187 39.9723 15.9801 39.358 15.9992C37.1116 17.9221 34.4793 19.7905 31.4611 21.605C28.5924 23.2823 25.8832 25.1533 23.3339 27.2177C20.9342 29.1452 19.3187 31.5776 18.4876 34.5153C17.2834 35.3469 15.8594 36.5162 14.2152 38.0231C12.7244 39.5252 12.2301 40.9304 12.7319 42.2383C10.6188 43.4951 9.14048 45.3939 8.29682 47.9349C7.45338 50.4758 6.76146 52.9459 6.22107 55.345C5.83015 57.6071 4.87696 59.0927 3.3617 59.8015C3.86351 61.1094 4.05199 62.2285 3.92716 63.159C3.64875 64.0941 3.37035 65.0292 3.09194 65.9643C2.80121 66.5027 2.58737 67.0388 2.45022 67.5724C2.30896 67.9739 2.17182 68.5075 2.03877 69.1734C3.69778 73.0926 5.33624 76.3505 6.95417 78.9473C8.5721 81.5441 11.4025 83.5739 15.4448 85.0366C16.2004 84.616 17.1198 84.5213 18.2031 84.7524C19.436 84.8464 20.6708 85.0066 21.9077 85.2329C23.4558 85.5819 24.9251 85.8671 26.3156 86.0886C27.7019 86.1779 28.69 85.8163 29.2797 85.0039C34.393 86.301 39.2452 86.6135 43.8363 85.9415C48.5768 85.1325 53.4648 84.1204 58.5003 82.9051C61.0906 82.1629 63.8365 81.482 66.7381 80.8625C69.6399 80.2429 72.6971 79.6847 75.9099 79.1879C76.3504 78.5124 76.5621 77.9103 76.5457 77.3814C83.2706 76.1137 89.4936 73.538 95.2146 69.6544C100.932 65.6386 106.271 61.833 111.232 58.2376C111.357 57.3073 111.559 56.3746 111.837 55.4395C112.269 54.4996 112.624 53.5621 112.903 52.627C113.904 50.2135 114.525 47.9442 114.767 45.8191C115.162 43.689 114.035 42.0697 111.388 40.9608C111.666 40.0255 111.693 38.4365 111.47 36.1935C111.243 33.8182 110.859 31.3815 110.321 28.8834C109.935 26.3807 109.419 24.6099 108.772 23.5712C107.951 21.8762 106.582 19.8672 104.665 17.5444C102.901 15.2169 101.065 13.0238 99.1567 10.9654C97.2439 8.7749 95.5031 7.1745 93.9344 6.16442C92.8266 5.14003 91.3407 4.32581 89.4773 3.72194C87.6138 3.11807 85.8352 2.77626 84.1417 2.69651C84.1212 2.03539 82.8782 1.61068 80.4125 1.42256C78.1006 1.22967 75.6392 1.17377 73.0281 1.25487C70.5709 1.3312 69.1159 1.50874 68.6633 1.7875ZM77.4373 17.0003C77.9186 17.6471 78.6406 18.6174 79.6032 19.9111C80.5616 21.0724 81.7444 22.0284 83.1512 22.7788C84.5581 23.5292 86.1 23.68 87.7773 23.2308C87.6566 24.2934 87.7579 25.0843 88.0815 25.6037C88.4051 26.123 88.8035 26.574 89.2766 26.9563C89.4343 27.0838 89.515 27.2136 89.5191 27.3458C91.2619 29.0123 92.5626 31.2881 93.4209 34.1731C94.2791 37.0582 95.0667 40.1441 95.7837 43.4307C96.4966 46.585 97.359 49.6025 98.3708 52.4827C93.2722 56.6118 86.4698 60.3305 77.9636 63.6387C69.6069 66.81 60.6881 69.2048 51.2071 70.8228C41.8796 72.436 33.0608 73.107 24.7509 72.8357C24.2696 72.1889 23.9419 71.5373 23.7678 70.8809C23.7472 70.2198 23.8016 69.4902 23.9305 68.6921C23.9141 68.1632 23.8956 67.5681 23.8751 66.907C23.8545 66.2458 23.7571 65.5871 23.583 64.9308C22.5038 64.8319 21.7215 64.3929 21.2362 63.6139C20.7467 62.7026 20.9584 62.1004 21.8717 61.8073C23.2049 60.1777 24.978 57.8727 27.1913 54.8922C29.4005 51.7794 31.3939 49.1365 33.1711 46.9637C33.1588 46.567 33.1403 45.9719 33.1157 45.1786C33.2282 43.8516 33.3386 42.4584 33.447 40.9992C33.5554 39.54 34.0602 38.4655 34.9612 37.7758C35.2765 38.0307 35.5214 38.4862 35.6955 39.1427C35.8655 39.6668 36.0335 40.1247 36.1994 40.5166C36.5147 40.7716 37.1311 40.8187 38.0485 40.6578C38.4599 39.0569 39.9403 37.224 42.4895 35.1596C45.0349 32.9628 47.5841 30.8983 50.1375 28.9661C52.8405 26.8967 54.3291 25.3285 54.6034 24.2612C55.9897 24.3505 57.2121 24.1139 58.2708 23.5516C59.4789 22.8523 60.6849 22.0869 61.8891 21.2554C63.0931 20.4239 64.3012 19.7246 65.5134 19.1575C66.8751 18.4535 68.2614 18.5428 69.6724 19.4254C70.0923 18.0889 70.7607 17.3401 71.678 17.1792C72.5954 17.0184 73.6704 16.985 74.9034 17.079C75.9826 17.1779 76.8271 17.1516 77.4373 17.0003ZM97.5664 56.2798C97.7323 56.6717 98.1224 56.8582 98.7368 56.8391C99.3511 56.8201 99.5938 57.2096 99.4648 58.0077C94.1921 61.4802 88.8928 64.0934 83.5666 65.847C78.3899 67.4637 72.3829 69.5695 65.5456 72.1642C65.3838 71.9045 64.9917 71.652 64.3692 71.4066C64.0579 71.2839 63.8233 71.1589 63.6657 71.0314C63.6574 70.7669 64.0292 70.3583 64.7807 69.8056C68.1389 69.0395 71.7901 67.801 75.7338 66.0903C79.6776 64.3796 83.5426 62.6051 87.3289 60.7669C91.2686 58.924 94.6812 57.4282 97.5664 56.2798Z" fill="url(#paint0_linear_267_5876)"/>
<path d="M103.525 74.9474C103.608 75.2791 103.504 75.5694 103.214 75.8182C102.965 76.0255 102.716 76.1914 102.467 76.3158C102.219 76.4817 102.032 76.6268 101.908 76.7512C101.825 76.8341 101.908 76.9378 102.156 77.0622C101.493 77.1866 100.85 77.3939 100.228 77.6842C99.6062 78.0159 99.0049 78.2025 98.4244 78.244C96.6413 78.3684 94.9412 78.0159 93.324 77.1866C91.7483 76.3987 90.4835 75.5694 89.5298 74.6986C87.7053 72.9985 85.8807 71.2776 84.0562 69.536C82.2731 67.7944 80.5108 66.0321 78.7692 64.249C78.7277 64.871 78.7277 65.5967 78.7692 66.426C78.8107 67.2553 78.8729 68.1469 78.9558 69.1006C79.1217 70.7178 79.2253 72.4179 79.2668 74.201C79.3497 75.9426 79.2253 77.5598 78.8936 79.0526C78.5619 80.5454 77.8777 81.7272 76.841 82.598C74.4774 81.976 72.3211 81.1467 70.3722 80.11C68.4233 79.0733 66.5987 77.9123 64.8986 76.6268V75.6938C64.2351 75.5279 63.6753 75.2377 63.2192 74.823C62.8045 74.4083 62.2033 74.1803 61.4154 74.1388C62.7838 74.1803 64.0485 74.3669 65.2096 74.6986C66.4121 75.0303 67.6561 75.3621 68.9416 75.6938C70.2271 76.0255 71.6784 76.2121 73.2956 76.2536C73.8347 75.4657 74.1664 74.4291 74.2908 73.1436C74.4152 71.8167 74.4359 70.4275 74.353 68.9762C74.2701 67.5249 74.1664 66.2394 74.042 65.1198C72.9639 65.2442 72.0516 65.6589 71.3052 66.3638C70.6003 67.0687 69.9161 67.7529 69.2526 68.4164C68.5891 69.0799 67.8013 69.4531 66.889 69.536C66.9305 69.8263 66.9097 70.0129 66.8268 70.0958C66.7439 70.1373 66.6402 70.158 66.5158 70.158C66.3914 70.1995 66.267 70.2617 66.1426 70.3446C66.0597 70.3861 66.0182 70.5727 66.0182 70.9044C64.9815 71.2776 64.0693 71.7752 63.2814 72.3972C62.535 72.9777 61.8093 73.5997 61.1044 74.2632C60.0263 75.2169 58.8445 76.1085 57.559 76.9378C56.315 77.7257 54.5319 78.0989 52.2098 78.0574C51.6707 77.7257 51.1731 77.3939 50.717 77.0622C50.3023 76.7719 49.9913 76.378 49.784 75.8804C53.7233 74.3047 57.2273 72.335 60.2958 69.9714C63.3643 67.5663 66.2255 64.9954 68.8794 62.2586C67.6769 62.4659 66.3914 62.6525 65.023 62.8184C63.6961 62.9428 62.4313 63.1709 61.2288 63.5026C60.0263 63.7929 59.0311 64.3319 58.2432 65.1198C56.8333 64.871 55.4649 64.4149 54.138 63.7514C52.8111 63.0465 51.5256 62.3208 50.2816 61.5744C50.6963 61.1183 51.1109 60.8695 51.5256 60.828C51.9817 60.7865 52.4793 60.7865 53.0184 60.828C53.2672 60.828 53.516 60.828 53.7648 60.828C54.0551 60.828 54.3661 60.828 54.6978 60.828C56.1491 60.4548 57.9115 60.1645 59.9848 59.9572C62.0581 59.7084 64.09 59.5011 66.0804 59.3352C67.1585 59.2523 68.444 59.1486 69.9368 59.0242C71.4296 58.8583 72.6529 58.7754 73.6066 58.7754C73.6895 58.5681 73.6895 58.2363 73.6066 57.7802C73.5651 57.2826 73.4822 56.8265 73.3578 56.4118C73.0261 56.2045 72.6321 56.1215 72.176 56.163C71.7199 56.163 71.2223 56.1837 70.6832 56.2252C69.8124 56.3496 68.9416 56.3703 68.0708 56.2874C67.2 56.163 66.578 55.5825 66.2048 54.5458C65.956 53.3847 65.8109 52.12 65.7694 50.7516C65.7694 49.3417 65.7901 47.8697 65.8316 46.3354C65.8316 45.2158 65.8316 44.0547 65.8316 42.8522C65.8731 41.6497 65.8523 40.4057 65.7694 39.1202C65.4377 38.6641 65.0437 38.2909 64.5876 38.0006C64.1729 37.6689 63.7168 37.3579 63.2192 37.0676C63.4265 36.6529 63.5302 36.3419 63.5302 36.1346C63.5302 35.9273 63.5717 35.637 63.6546 35.2638C64.4425 34.8906 65.2096 34.704 65.956 34.704C66.7024 34.6625 67.4073 34.6211 68.0708 34.5796C68.7757 34.5381 69.377 34.3515 69.8746 34.0198C70.7039 33.4393 71.2845 32.6514 71.6162 31.6562C71.9479 30.661 72.4455 29.7073 73.109 28.795C72.9017 28.5877 72.6529 28.3803 72.3626 28.173C72.1138 27.9657 71.8235 27.7583 71.4918 27.551C70.9942 27.2607 70.5381 26.9497 70.1234 26.618C69.7502 26.2863 69.5636 25.8923 69.5636 25.4362C69.8953 24.8142 70.3722 24.5654 70.9942 24.6898C71.6577 24.7727 72.2589 24.9179 72.798 25.1252C74.2079 24.752 75.4311 24.8142 76.4678 25.3118C77.5459 25.7679 78.4375 26.4314 79.1424 27.3022C78.9351 28.5877 78.4375 29.6451 77.6496 30.4744C76.9032 31.3037 76.2605 32.2367 75.7214 33.2734C76.5093 33.2734 77.2764 33.2527 78.0228 33.2112C78.7692 33.1697 79.4949 33.1075 80.1998 33.0246C81.5682 32.9417 82.8744 32.9002 84.1184 32.9002C85.3624 32.8587 86.5235 33.0453 87.6016 33.46C88.7212 33.8747 89.7371 34.6625 90.6494 35.8236C90.3177 35.7407 90.1518 35.7614 90.1518 35.8858C90.1933 35.9687 90.2969 36.0931 90.4628 36.259C90.5872 36.4663 90.7116 36.6944 90.836 36.9432C90.9604 37.1505 90.9811 37.3786 90.8982 37.6274C89.6957 37.9177 88.8249 38.5811 88.2858 39.6178C87.7882 40.6545 87.4979 41.8985 87.415 43.3498C87.3321 44.8011 87.2906 46.3147 87.2906 47.8904C87.3321 49.5076 87.2906 51.0833 87.1662 52.6176C87.0833 54.1519 86.7101 55.3751 86.0466 56.2874C85.4246 56.3289 84.8855 56.3081 84.4294 56.2252C83.9733 56.1423 83.5171 56.0386 83.061 55.9142C82.4805 55.7483 81.817 55.6032 81.0706 55.4788C80.3242 55.3544 79.329 55.3751 78.085 55.541C78.2509 55.7483 78.3545 55.9557 78.396 56.163C78.4375 56.3289 78.4375 56.4947 78.396 56.6606C78.396 56.785 78.396 56.9301 78.396 57.096C78.4375 57.2619 78.4997 57.4277 78.5826 57.5936C79.2046 57.8839 79.9925 58.0497 80.9462 58.0912C81.9414 58.0912 82.9781 58.0497 84.0562 57.9668C84.6367 57.9668 85.2173 57.9461 85.7978 57.9046C86.3783 57.8631 86.9381 57.8631 87.4772 57.9046C88.6383 57.9461 89.7993 57.9253 90.9604 57.8424C92.1629 57.7595 93.1581 57.4485 93.946 56.9094C94.8997 57.0753 95.9364 57.2826 97.056 57.5314C98.2171 57.7387 99.2952 58.1119 100.29 58.651C101.286 59.1901 101.991 60.0194 102.405 61.139C101.949 61.1805 101.576 61.3463 101.286 61.6366C101.037 61.8854 100.56 62.0305 99.855 62.072C98.4451 62.1549 96.9731 62.1549 95.4388 62.072C93.9045 61.9476 92.391 61.8232 90.8982 61.6988C89.1151 61.5744 87.3735 61.4707 85.6734 61.3878C83.9733 61.2634 82.3561 61.2841 80.8218 61.45C81.817 62.7769 83.1025 63.8551 84.6782 64.6844C86.2539 65.4723 87.9541 66.1772 89.7786 66.7992C91.6031 67.3797 93.4069 68.0017 95.19 68.6652C97.0145 69.2872 98.6525 70.0958 100.104 71.091C101.597 72.0447 102.737 73.3302 103.525 74.9474ZM81.3194 51.9334C81.3194 51.5187 81.3194 51.1041 81.3194 50.6894C81.3609 50.2333 81.4023 49.7771 81.4438 49.321C81.5267 47.455 81.5889 45.4231 81.6304 43.2254C81.6719 40.9862 81.5682 38.8507 81.3194 36.8188C80.3657 36.4456 79.2668 36.3005 78.0228 36.3834C76.7788 36.4663 75.5348 36.6322 74.2908 36.881C73.0883 37.1298 72.0309 37.3993 71.1186 37.6896C71.1601 38.1457 71.1601 38.6641 71.1186 39.2446C71.0771 39.8251 71.0357 40.4264 70.9942 41.0484C70.9527 41.4631 70.9113 41.8777 70.8698 42.2924C70.8698 42.6656 70.8698 43.0181 70.8698 43.3498C71.9894 42.9766 73.2334 42.79 74.6018 42.79C76.0117 42.79 77.2971 42.9351 78.4582 43.2254C79.6607 43.5157 80.5108 43.9718 81.0084 44.5938C79.8473 45.1329 78.3338 45.5268 76.4678 45.7756C74.6018 45.9829 72.7773 46.2317 70.9942 46.522C70.9527 46.8952 70.932 47.3721 70.932 47.9526C70.932 48.4917 70.932 49.0722 70.932 49.6942C70.932 50.2333 70.932 50.7931 70.932 51.3736C70.9735 51.9127 70.9735 52.4103 70.932 52.8664C71.6369 52.8664 72.3211 52.8457 72.9846 52.8042C73.6895 52.7213 74.3737 52.6591 75.0372 52.6176C75.7007 52.5347 76.3434 52.4725 76.9654 52.431C77.6289 52.3481 78.3131 52.3066 79.018 52.3066C79.1424 52.3066 79.3497 52.3273 79.64 52.3688C79.9717 52.4103 80.3035 52.431 80.6352 52.431C80.9669 52.3895 81.195 52.2237 81.3194 51.9334ZM103.649 36.57C102.447 36.8603 101.389 37.2957 100.477 37.8762C99.6062 38.4567 98.7769 39.058 97.989 39.68C96.9109 40.5508 95.812 41.2765 94.6924 41.857C93.6143 42.4375 92.2873 42.5412 90.7116 42.168C90.5457 42.2095 90.3799 42.2302 90.214 42.2302C90.0896 42.2302 89.9445 42.2302 89.7786 42.2302C89.4883 42.1887 89.2603 42.168 89.0944 42.168C90.1311 40.7581 91.3543 39.5349 92.7642 38.4982C94.1741 37.4615 95.4803 36.3212 96.6828 35.0772C96.5169 34.8699 96.2474 34.6833 95.8742 34.5174C95.501 34.3515 95.1485 34.1442 94.8168 33.8954C94.5265 33.6051 94.3607 33.1697 94.3192 32.5892C95.7291 32.4648 97.0975 32.527 98.4244 32.7758C99.7928 32.9831 100.954 33.3978 101.908 34.0198C102.861 34.6418 103.442 35.4919 103.649 36.57ZM64.09 49.1344C63.7997 49.9637 63.3229 50.6894 62.6594 51.3114C62.0374 51.9334 61.3739 52.5554 60.669 53.1774C60.0055 53.7579 59.425 54.3799 58.9274 55.0434C58.4298 55.7069 58.1603 56.4947 58.1188 57.407C56.0869 57.7802 54.449 57.5729 53.205 56.785C52.0025 55.9557 50.9865 54.7531 50.1572 53.1774C50.5304 53.0945 50.8829 53.0945 51.2146 53.1774C51.5878 53.2189 51.9403 53.2811 52.272 53.364C52.5208 53.4469 52.7696 53.5091 53.0184 53.5506C53.3087 53.5921 53.5989 53.5921 53.8892 53.5506C54.3868 53.4262 54.9051 53.1152 55.4442 52.6176C56.0247 52.0785 56.5845 51.4773 57.1236 50.8138C57.6627 50.1503 58.181 49.5491 58.6786 49.01C59.2177 48.4709 59.6945 48.1392 60.1092 48.0148C60.5239 47.8904 60.8971 47.8904 61.2288 48.0148C61.602 48.0977 61.9959 48.2429 62.4106 48.4502C62.6594 48.5746 62.9082 48.699 63.157 48.8234C63.4473 48.9478 63.7583 49.0515 64.09 49.1344ZM101.41 55.4166C100.207 55.8313 99.0671 55.8313 97.989 55.4166C96.9523 55.0019 95.9571 54.5043 95.0034 53.9238C94.7546 53.7579 94.4851 53.6128 94.1948 53.4884C93.946 53.3225 93.6972 53.1774 93.4484 53.053C93.2825 51.2699 92.7435 49.8601 91.8312 48.8234C90.9189 47.7453 90.0274 46.6671 89.1566 45.589C89.1151 45.3402 89.1773 45.1951 89.3432 45.1536C91.2092 45.4024 93.013 45.9829 94.7546 46.8952C96.5377 47.766 98.0305 48.9271 99.233 50.3784C100.477 51.8297 101.203 53.5091 101.41 55.4166ZM62.0996 43.6608C62.0581 43.7023 61.9959 43.7437 61.913 43.7852C61.6227 43.9096 61.2703 44.034 60.8556 44.1584C60.4409 44.2413 59.8604 44.1999 59.114 44.034C58.4091 43.8681 57.3931 43.4742 56.0662 42.8522C55.4027 41.5667 54.8015 40.3227 54.2624 39.1202C53.7233 37.9177 52.9769 36.9847 52.0232 36.3212C53.9721 35.948 55.6723 36.1346 57.1236 36.881C58.6164 37.5859 59.7982 38.5811 60.669 39.8666C61.5813 41.1106 62.0581 42.3753 62.0996 43.6608ZM159.505 74.9474C159.588 75.2791 159.484 75.5694 159.194 75.8182C158.945 76.0255 158.696 76.1914 158.447 76.3158C158.199 76.4817 158.012 76.6268 157.888 76.7512C157.805 76.8341 157.888 76.9378 158.136 77.0622C157.473 77.1866 156.83 77.3939 156.208 77.6842C155.586 78.0159 154.985 78.2025 154.404 78.244C152.621 78.3684 150.921 78.0159 149.304 77.1866C147.728 76.3987 146.464 75.5694 145.51 74.6986C143.685 72.9985 141.861 71.2776 140.036 69.536C138.253 67.7944 136.491 66.0321 134.749 64.249C134.708 64.871 134.708 65.5967 134.749 66.426C134.791 67.2553 134.853 68.1469 134.936 69.1006C135.102 70.7178 135.205 72.4179 135.247 74.201C135.33 75.9426 135.205 77.5598 134.874 79.0526C134.542 80.5454 133.858 81.7272 132.821 82.598C130.457 81.976 128.301 81.1467 126.352 80.11C124.403 79.0733 122.579 77.9123 120.879 76.6268V75.6938C120.215 75.5279 119.655 75.2377 119.199 74.823C118.785 74.4083 118.183 74.1803 117.395 74.1388C118.764 74.1803 120.029 74.3669 121.19 74.6986C122.392 75.0303 123.636 75.3621 124.922 75.6938C126.207 76.0255 127.658 76.2121 129.276 76.2536C129.815 75.4657 130.146 74.4291 130.271 73.1436C130.395 71.8167 130.416 70.4275 130.333 68.9762C130.25 67.5249 130.146 66.2394 130.022 65.1198C128.944 65.2442 128.032 65.6589 127.285 66.3638C126.58 67.0687 125.896 67.7529 125.233 68.4164C124.569 69.0799 123.781 69.4531 122.869 69.536C122.91 69.8263 122.89 70.0129 122.807 70.0958C122.724 70.1373 122.62 70.158 122.496 70.158C122.371 70.1995 122.247 70.2617 122.123 70.3446C122.04 70.3861 121.998 70.5727 121.998 70.9044C120.962 71.2776 120.049 71.7752 119.261 72.3972C118.515 72.9777 117.789 73.5997 117.084 74.2632C116.006 75.2169 114.824 76.1085 113.539 76.9378C112.295 77.7257 110.512 78.0989 108.19 78.0574C107.651 77.7257 107.153 77.3939 106.697 77.0622C106.282 76.7719 105.971 76.378 105.764 75.8804C109.703 74.3047 113.207 72.335 116.276 69.9714C119.344 67.5663 122.206 64.9954 124.859 62.2586C123.657 62.4659 122.371 62.6525 121.003 62.8184C119.676 62.9428 118.411 63.1709 117.209 63.5026C116.006 63.7929 115.011 64.3319 114.223 65.1198C112.813 64.871 111.445 64.4149 110.118 63.7514C108.791 63.0465 107.506 62.3208 106.262 61.5744C106.676 61.1183 107.091 60.8695 107.506 60.828C107.962 60.7865 108.459 60.7865 108.998 60.828C109.247 60.828 109.496 60.828 109.745 60.828C110.035 60.828 110.346 60.828 110.678 60.828C112.129 60.4548 113.891 60.1645 115.965 59.9572C118.038 59.7084 120.07 59.5011 122.06 59.3352C123.139 59.2523 124.424 59.1486 125.917 59.0242C127.41 58.8583 128.633 58.7754 129.587 58.7754C129.67 58.5681 129.67 58.2363 129.587 57.7802C129.545 57.2826 129.462 56.8265 129.338 56.4118C129.006 56.2045 128.612 56.1215 128.156 56.163C127.7 56.163 127.202 56.1837 126.663 56.2252C125.792 56.3496 124.922 56.3703 124.051 56.2874C123.18 56.163 122.558 55.5825 122.185 54.5458C121.936 53.3847 121.791 52.12 121.749 50.7516C121.749 49.3417 121.77 47.8697 121.812 46.3354C121.812 45.2158 121.812 44.0547 121.812 42.8522C121.853 41.6497 121.832 40.4057 121.749 39.1202C121.418 38.6641 121.024 38.2909 120.568 38.0006C120.153 37.6689 119.697 37.3579 119.199 37.0676C119.407 36.6529 119.51 36.3419 119.51 36.1346C119.51 35.9273 119.552 35.637 119.635 35.2638C120.422 34.8906 121.19 34.704 121.936 34.704C122.682 34.6625 123.387 34.6211 124.051 34.5796C124.756 34.5381 125.357 34.3515 125.855 34.0198C126.684 33.4393 127.264 32.6514 127.596 31.6562C127.928 30.661 128.426 29.7073 129.089 28.795C128.882 28.5877 128.633 28.3803 128.343 28.173C128.094 27.9657 127.804 27.7583 127.472 27.551C126.974 27.2607 126.518 26.9497 126.103 26.618C125.73 26.2863 125.544 25.8923 125.544 25.4362C125.875 24.8142 126.352 24.5654 126.974 24.6898C127.638 24.7727 128.239 24.9179 128.778 25.1252C130.188 24.752 131.411 24.8142 132.448 25.3118C133.526 25.7679 134.417 26.4314 135.122 27.3022C134.915 28.5877 134.417 29.6451 133.63 30.4744C132.883 31.3037 132.24 32.2367 131.701 33.2734C132.489 33.2734 133.256 33.2527 134.003 33.2112C134.749 33.1697 135.475 33.1075 136.18 33.0246C137.548 32.9417 138.854 32.9002 140.098 32.9002C141.342 32.8587 142.503 33.0453 143.582 33.46C144.701 33.8747 145.717 34.6625 146.629 35.8236C146.298 35.7407 146.132 35.7614 146.132 35.8858C146.173 35.9687 146.277 36.0931 146.443 36.259C146.567 36.4663 146.692 36.6944 146.816 36.9432C146.94 37.1505 146.961 37.3786 146.878 37.6274C145.676 37.9177 144.805 38.5811 144.266 39.6178C143.768 40.6545 143.478 41.8985 143.395 43.3498C143.312 44.8011 143.271 46.3147 143.271 47.8904C143.312 49.5076 143.271 51.0833 143.146 52.6176C143.063 54.1519 142.69 55.3751 142.027 56.2874C141.405 56.3289 140.866 56.3081 140.409 56.2252C139.953 56.1423 139.497 56.0386 139.041 55.9142C138.46 55.7483 137.797 55.6032 137.051 55.4788C136.304 55.3544 135.309 55.3751 134.065 55.541C134.231 55.7483 134.335 55.9557 134.376 56.163C134.417 56.3289 134.417 56.4947 134.376 56.6606C134.376 56.785 134.376 56.9301 134.376 57.096C134.417 57.2619 134.48 57.4277 134.563 57.5936C135.185 57.8839 135.972 58.0497 136.926 58.0912C137.921 58.0912 138.958 58.0497 140.036 57.9668C140.617 57.9668 141.197 57.9461 141.778 57.9046C142.358 57.8631 142.918 57.8631 143.457 57.9046C144.618 57.9461 145.779 57.9253 146.94 57.8424C148.143 57.7595 149.138 57.4485 149.926 56.9094C150.88 57.0753 151.916 57.2826 153.036 57.5314C154.197 57.7387 155.275 58.1119 156.27 58.651C157.266 59.1901 157.971 60.0194 158.385 61.139C157.929 61.1805 157.556 61.3463 157.266 61.6366C157.017 61.8854 156.54 62.0305 155.835 62.072C154.425 62.1549 152.953 62.1549 151.419 62.072C149.885 61.9476 148.371 61.8232 146.878 61.6988C145.095 61.5744 143.354 61.4707 141.653 61.3878C139.953 61.2634 138.336 61.2841 136.802 61.45C137.797 62.7769 139.082 63.8551 140.658 64.6844C142.234 65.4723 143.934 66.1772 145.759 66.7992C147.583 67.3797 149.387 68.0017 151.17 68.6652C152.995 69.2872 154.632 70.0958 156.084 71.091C157.577 72.0447 158.717 73.3302 159.505 74.9474ZM137.299 51.9334C137.299 51.5187 137.299 51.1041 137.299 50.6894C137.341 50.2333 137.382 49.7771 137.424 49.321C137.507 47.455 137.569 45.4231 137.61 43.2254C137.652 40.9862 137.548 38.8507 137.299 36.8188C136.346 36.4456 135.247 36.3005 134.003 36.3834C132.759 36.4663 131.515 36.6322 130.271 36.881C129.068 37.1298 128.011 37.3993 127.099 37.6896C127.14 38.1457 127.14 38.6641 127.099 39.2446C127.057 39.8251 127.016 40.4264 126.974 41.0484C126.933 41.4631 126.891 41.8777 126.85 42.2924C126.85 42.6656 126.85 43.0181 126.85 43.3498C127.969 42.9766 129.213 42.79 130.582 42.79C131.992 42.79 133.277 42.9351 134.438 43.2254C135.641 43.5157 136.491 43.9718 136.988 44.5938C135.827 45.1329 134.314 45.5268 132.448 45.7756C130.582 45.9829 128.757 46.2317 126.974 46.522C126.933 46.8952 126.912 47.3721 126.912 47.9526C126.912 48.4917 126.912 49.0722 126.912 49.6942C126.912 50.2333 126.912 50.7931 126.912 51.3736C126.953 51.9127 126.953 52.4103 126.912 52.8664C127.617 52.8664 128.301 52.8457 128.965 52.8042C129.67 52.7213 130.354 52.6591 131.017 52.6176C131.681 52.5347 132.323 52.4725 132.945 52.431C133.609 52.3481 134.293 52.3066 134.998 52.3066C135.122 52.3066 135.33 52.3273 135.62 52.3688C135.952 52.4103 136.283 52.431 136.615 52.431C136.947 52.3895 137.175 52.2237 137.299 51.9334ZM159.629 36.57C158.427 36.8603 157.369 37.2957 156.457 37.8762C155.586 38.4567 154.757 39.058 153.969 39.68C152.891 40.5508 151.792 41.2765 150.672 41.857C149.594 42.4375 148.267 42.5412 146.692 42.168C146.526 42.2095 146.36 42.2302 146.194 42.2302C146.07 42.2302 145.924 42.2302 145.759 42.2302C145.468 42.1887 145.24 42.168 145.074 42.168C146.111 40.7581 147.334 39.5349 148.744 38.4982C150.154 37.4615 151.46 36.3212 152.663 35.0772C152.497 34.8699 152.227 34.6833 151.854 34.5174C151.481 34.3515 151.129 34.1442 150.797 33.8954C150.507 33.6051 150.341 33.1697 150.299 32.5892C151.709 32.4648 153.077 32.527 154.404 32.7758C155.773 32.9831 156.934 33.3978 157.888 34.0198C158.841 34.6418 159.422 35.4919 159.629 36.57ZM120.07 49.1344C119.78 49.9637 119.303 50.6894 118.639 51.3114C118.017 51.9334 117.354 52.5554 116.649 53.1774C115.986 53.7579 115.405 54.3799 114.907 55.0434C114.41 55.7069 114.14 56.4947 114.099 57.407C112.067 57.7802 110.429 57.5729 109.185 56.785C107.982 55.9557 106.967 54.7531 106.137 53.1774C106.51 53.0945 106.863 53.0945 107.195 53.1774C107.568 53.2189 107.92 53.2811 108.252 53.364C108.501 53.4469 108.75 53.5091 108.998 53.5506C109.289 53.5921 109.579 53.5921 109.869 53.5506C110.367 53.4262 110.885 53.1152 111.424 52.6176C112.005 52.0785 112.565 51.4773 113.104 50.8138C113.643 50.1503 114.161 49.5491 114.659 49.01C115.198 48.4709 115.675 48.1392 116.089 48.0148C116.504 47.8904 116.877 47.8904 117.209 48.0148C117.582 48.0977 117.976 48.2429 118.391 48.4502C118.639 48.5746 118.888 48.699 119.137 48.8234C119.427 48.9478 119.738 49.0515 120.07 49.1344ZM157.39 55.4166C156.187 55.8313 155.047 55.8313 153.969 55.4166C152.932 55.0019 151.937 54.5043 150.983 53.9238C150.735 53.7579 150.465 53.6128 150.175 53.4884C149.926 53.3225 149.677 53.1774 149.428 53.053C149.263 51.2699 148.723 49.8601 147.811 48.8234C146.899 47.7453 146.007 46.6671 145.137 45.589C145.095 45.3402 145.157 45.1951 145.323 45.1536C147.189 45.4024 148.993 45.9829 150.735 46.8952C152.518 47.766 154.01 48.9271 155.213 50.3784C156.457 51.8297 157.183 53.5091 157.39 55.4166ZM118.08 43.6608C118.038 43.7023 117.976 43.7437 117.893 43.7852C117.603 43.9096 117.25 44.034 116.836 44.1584C116.421 44.2413 115.84 44.1999 115.094 44.034C114.389 43.8681 113.373 43.4742 112.046 42.8522C111.383 41.5667 110.781 40.3227 110.242 39.1202C109.703 37.9177 108.957 36.9847 108.003 36.3212C109.952 35.948 111.652 36.1346 113.104 36.881C114.596 37.5859 115.778 38.5811 116.649 39.8666C117.561 41.1106 118.038 42.3753 118.08 43.6608ZM214.614 78.7416C213.785 79.5709 212.582 80.0893 211.006 80.2966C209.431 80.5454 207.813 80.5869 206.155 80.421C204.496 80.2966 203.107 80.0685 201.987 79.7368C201.117 78.9075 200.267 77.9123 199.437 76.7512C198.649 75.5901 197.696 74.5742 196.576 73.7034C195.747 74.7815 194.627 75.6938 193.217 76.4402C191.807 77.1866 190.273 77.9123 188.614 78.6172C186.956 79.3636 185.339 80.2344 183.763 81.2296C182.436 81.2296 181.275 80.9186 180.28 80.2966C179.284 79.6746 178.476 78.8867 177.854 77.933C177.273 76.9793 176.838 76.0463 176.548 75.134C177.004 75.0925 177.418 75.1133 177.792 75.1962C178.165 75.2791 178.517 75.3828 178.849 75.5072C179.222 75.6316 179.595 75.7353 179.969 75.8182C180.342 75.9011 180.777 75.9011 181.275 75.8182C181.15 75.3206 181.088 74.7815 181.088 74.201C181.13 73.579 181.192 72.957 181.275 72.335C181.316 71.7545 181.358 71.1947 181.399 70.6556C181.441 70.0751 181.399 69.5567 181.275 69.1006C180.487 69.2665 179.678 69.7226 178.849 70.469C178.02 71.1739 177.107 71.6923 176.112 72.024C175.739 72.2728 175.345 72.5631 174.93 72.8948C174.557 73.2265 174.184 73.5583 173.811 73.89C172.567 74.9681 171.24 75.9841 169.83 76.9378C168.42 77.8501 166.927 78.2233 165.352 78.0574C164.895 78.5965 164.419 78.8245 163.921 78.7416C163.465 78.7001 162.884 78.555 162.179 78.3062C162.014 78.2233 161.827 78.1403 161.62 78.0574C161.454 78.0159 161.267 77.9537 161.06 77.8708C163.258 76.6683 165.559 75.2999 167.964 73.7656C170.369 72.2313 172.691 70.6349 174.93 68.9762C177.211 67.2761 179.181 65.6381 180.839 64.0624C180.508 63.9795 180.155 63.938 179.782 63.938C179.45 63.938 179.119 63.9587 178.787 64.0002C178.289 64.0831 177.75 64.1246 177.17 64.1246C176.589 64.1246 175.946 63.9795 175.241 63.6892C174.578 63.0257 173.956 62.4867 173.375 62.072C172.795 61.6159 172.277 61.0353 171.82 60.3304C173.272 60.2475 174.951 60.1853 176.859 60.1438C178.808 60.1023 180.736 59.9572 182.643 59.7084C183.099 59.6255 183.618 59.5425 184.198 59.4596C184.82 59.3767 185.359 59.2937 185.815 59.2108C186.272 59.1279 186.5 59.0864 186.5 59.0864C185.339 58.6303 184.426 57.9461 183.763 57.0338C183.141 56.0801 182.477 55.1678 181.772 54.297C182.021 54.0482 182.353 53.9238 182.768 53.9238C183.224 53.8823 183.638 53.8616 184.012 53.8616C184.219 53.8616 184.364 53.8616 184.447 53.8616C184.613 53.4055 184.675 52.9701 184.634 52.5554C184.634 52.0993 184.634 51.6639 184.634 51.2492C184.592 50.876 184.571 50.5235 184.571 50.1918C184.571 49.8186 184.613 49.4454 184.696 49.0722C184.074 48.9063 183.307 48.8234 182.394 48.8234C181.524 48.7819 180.86 48.9271 180.404 49.2588C180.321 50.876 180.28 52.4725 180.28 54.0482C180.321 55.5825 180.363 57.0545 180.404 58.4644C180.363 58.7132 180.134 58.8998 179.72 59.0242C179.305 59.1071 178.849 59.1279 178.351 59.0864C177.522 58.4644 176.962 57.5936 176.672 56.474C176.423 55.3544 176.32 54.1933 176.361 52.9908C176.402 51.7883 176.465 50.7101 176.548 49.7564V49.6942C175.884 49.8186 175.262 49.943 174.682 50.0674C174.101 50.1503 173.458 50.2333 172.753 50.3162C172.836 50.8967 172.857 51.5395 172.816 52.2444C172.774 52.9493 172.712 53.675 172.629 54.4214C172.505 55.2507 172.422 56.0593 172.38 56.8472C172.339 57.5936 172.38 58.2571 172.505 58.8376C171.219 59.3767 169.934 59.3559 168.648 58.7754C167.404 58.1949 166.679 57.3241 166.471 56.163C167.052 55.7069 167.425 55.1263 167.591 54.4214C167.798 53.675 167.86 52.9079 167.777 52.12C167.694 51.1663 167.383 50.3162 166.844 49.5698C166.347 48.8234 165.683 48.3673 164.854 48.2014C165.393 47.8697 165.953 47.6209 166.533 47.455C167.114 47.2891 167.715 47.1855 168.337 47.144C168.752 47.1025 169.167 47.0818 169.581 47.0818C169.996 47.0403 170.411 47.0196 170.825 47.0196C171.737 46.9781 172.65 46.9367 173.562 46.8952C174.516 46.8123 175.449 46.6257 176.361 46.3354C176.568 45.8378 176.568 45.3402 176.361 44.8426C175.532 44.8011 174.64 44.8426 173.686 44.967C172.774 45.0914 171.841 45.2365 170.887 45.4024C170.058 45.5268 169.208 45.6512 168.337 45.7756C167.508 45.9 166.699 45.9622 165.911 45.9622C164.875 45.9622 163.9 45.8171 162.988 45.5268C162.117 45.1951 161.392 44.6353 160.811 43.8474C162.967 43.101 165.352 42.6449 167.964 42.479C170.576 42.2717 173.292 42.0229 176.112 41.7326C176.568 41.4838 176.796 41.1521 176.796 40.7374C176.838 40.3227 176.817 39.9081 176.734 39.4934C176.693 39.2031 176.672 38.9543 176.672 38.747C176.672 38.4982 176.713 38.3116 176.796 38.1872C175.926 38.1043 175.241 38.0628 174.744 38.0628C174.246 38.0628 173.666 37.9591 173.002 37.7518C172.463 38.3323 171.903 38.9751 171.323 39.68C170.742 40.3435 170.079 40.9033 169.332 41.3594C168.71 41.7326 168.005 41.9607 167.218 42.0436C166.471 42.1265 165.621 41.9607 164.667 41.546C165.206 40.3849 165.746 39.4519 166.285 38.747C166.824 38.0006 167.363 37.2749 167.902 36.57C168.482 35.8651 169.042 35.015 169.581 34.0198C169.457 33.771 169.312 33.5637 169.146 33.3978C169.021 33.1905 168.897 33.0039 168.773 32.838C168.524 32.5892 168.337 32.3404 168.213 32.0916C168.088 31.8428 168.026 31.4281 168.026 30.8476C168.607 30.8891 168.98 30.7647 169.146 30.4744C169.892 30.6817 170.763 30.9305 171.758 31.2208C172.753 31.5111 173.541 31.905 174.122 32.4026C174.536 32.6929 174.806 33.0661 174.93 33.5222C175.055 33.9783 174.951 34.4967 174.619 35.0772C175.076 34.9943 175.511 34.8491 175.926 34.6418C176.382 34.4345 176.61 34.1857 176.61 33.8954C176.61 33.3149 176.361 32.6721 175.863 31.9672C175.407 31.2623 175.117 30.6817 174.993 30.2256C174.827 29.6036 174.785 29.0645 174.868 28.6084C174.951 28.1523 175.076 27.7169 175.241 27.3022C176.361 27.3022 177.232 27.5303 177.854 27.9864C178.517 28.4011 179.098 28.9401 179.595 29.6036C180.093 30.2256 180.653 30.8476 181.275 31.4696C181.192 32.0501 181.15 32.5477 181.15 32.9624C181.192 33.3356 181.171 33.7503 181.088 34.2064C181.669 34.0405 182.457 34.0198 183.452 34.1442C184.447 34.2271 185.421 34.4552 186.375 34.8284C187.329 35.2016 188.034 35.7614 188.49 36.5078C187.661 36.6322 186.624 36.7981 185.38 37.0054C184.136 37.2127 182.933 37.3993 181.772 37.5652C181.441 38.0213 181.254 38.4567 181.213 38.8714C181.171 39.2446 181.171 39.68 181.213 40.1776C181.254 40.4679 181.275 40.6959 181.275 40.8618C182.477 40.3642 183.618 40.1776 184.696 40.302C185.774 40.3849 186.811 40.6545 187.806 41.1106C188.801 41.5253 189.734 41.9814 190.605 42.479C190.688 42.5205 190.729 42.5412 190.729 42.5412C189.568 43.2047 188.138 43.5986 186.437 43.723C184.737 43.8474 183.099 44.0133 181.524 44.2206C180.943 44.4279 180.715 44.9255 180.839 45.7134C181.296 46.0037 181.793 46.0244 182.332 45.7756C182.871 45.5268 183.12 45.1536 183.079 44.656C185.318 44.3657 187.163 44.5523 188.614 45.2158C190.066 45.8793 191.31 46.8123 192.346 48.0148C192.305 48.5953 191.994 48.9478 191.413 49.0722C190.874 49.1966 190.418 49.4039 190.045 49.6942C190.128 50.3577 190.149 51.0419 190.107 51.7468C190.107 52.4517 190.024 53.1567 189.858 53.8616C190.937 54.2348 191.89 54.5458 192.72 54.7946C193.59 55.0434 194.275 55.5617 194.772 56.3496C194.855 56.6399 194.855 56.8679 194.772 57.0338C194.689 57.1582 194.586 57.2619 194.461 57.3448C194.337 57.4692 194.233 57.5936 194.15 57.718C194.067 57.8009 194.047 57.9668 194.088 58.2156C194.751 58.5059 195.415 58.6095 196.078 58.5266C196.742 58.4022 197.364 58.2363 197.944 58.029C198.359 57.9046 198.753 57.8009 199.126 57.718C199.499 57.5936 199.852 57.5521 200.184 57.5936C201.552 57.6765 202.817 58.1327 203.978 58.962C205.18 59.7499 206.238 60.5585 207.15 61.3878C207.067 61.5122 206.922 61.5744 206.715 61.5744C206.549 61.5744 206.362 61.5744 206.155 61.5744C205.947 61.5744 205.761 61.5951 205.595 61.6366C205.429 61.6366 205.284 61.6781 205.16 61.761C205.243 62.0098 205.367 62.1964 205.533 62.3208C205.74 62.4452 205.947 62.5696 206.155 62.694C206.445 62.8599 206.715 63.0672 206.963 63.316C207.212 63.5648 207.274 63.9587 207.15 64.4978C207.109 64.6222 207.046 64.7673 206.963 64.9332C206.922 65.0576 206.839 65.1198 206.715 65.1198C205.346 65.1198 204.164 65.3271 203.169 65.7418C202.174 66.115 201.241 66.5089 200.37 66.9236C199.541 67.3383 198.649 67.5871 197.696 67.67C198.649 68.4993 199.956 69.225 201.614 69.847C203.273 70.4275 205.056 71.0081 206.963 71.5886C207.378 71.713 207.959 71.9203 208.705 72.2106C209.451 72.4594 210.219 72.7497 211.006 73.0814C211.836 73.4131 212.499 73.7656 212.997 74.1388C214.738 75.3828 215.277 76.9171 214.614 78.7416ZM210.322 33.149C210.364 33.3563 210.364 33.5637 210.322 33.771C210.281 33.9783 210.219 34.2064 210.136 34.4552C210.094 34.5796 210.053 34.704 210.011 34.8284C209.97 34.9528 209.928 35.0979 209.887 35.2638C209.721 36.1761 209.576 37.1713 209.451 38.2494C209.327 39.2861 209.244 40.1569 209.203 40.8618C209.12 41.9399 209.099 43.0181 209.14 44.0962C209.182 45.1329 209.244 46.1695 209.327 47.2062C209.41 49.1551 209.431 51.0626 209.389 52.9286C209.389 54.7946 209.016 56.6399 208.27 58.4644C207.109 58.7547 206.113 58.8169 205.284 58.651C204.496 58.4437 203.812 58.1327 203.231 57.718C202.278 57.0131 201.448 56.1837 200.743 55.23C200.08 54.2763 199.23 53.5299 198.193 52.9908C198.401 52.9079 198.691 52.8871 199.064 52.9286C199.437 52.9286 199.831 52.9286 200.246 52.9286C200.785 52.9701 201.303 53.0115 201.801 53.053C202.298 53.053 202.734 52.9701 203.107 52.8042C203.853 50.6065 204.185 48.0563 204.102 45.1536C204.019 42.2095 203.874 39.3483 203.667 36.57C203.584 35.7821 203.522 35.015 203.48 34.2686C203.439 33.5222 203.397 32.7965 203.356 32.0916C202.734 31.6355 202.215 31.0964 201.801 30.4744C201.386 29.8524 200.992 29.0853 200.619 28.173C201.117 28.1315 201.863 28.2559 202.858 28.5462C203.853 28.795 204.89 29.1682 205.968 29.6658C207.088 30.1219 208.062 30.661 208.892 31.283C209.721 31.905 210.198 32.527 210.322 33.149ZM198.193 52.3688C197.157 52.5347 196.369 52.3273 195.83 51.7468C195.291 51.1663 194.814 50.5235 194.399 49.8186C194.233 49.5283 194.067 49.2795 193.901 49.0722C193.777 48.8234 193.632 48.5953 193.466 48.388C193.881 47.7245 194.109 47.0818 194.15 46.4598C194.192 45.7963 194.192 45.0707 194.15 44.2828C194.109 43.9096 194.088 43.5157 194.088 43.101C194.088 42.6863 194.088 42.2302 194.088 41.7326C193.922 41.4838 193.715 41.235 193.466 40.9862C193.259 40.6959 193.031 40.4057 192.782 40.1154C192.284 39.5349 191.828 38.9543 191.413 38.3738C190.999 37.7518 190.916 37.1298 191.165 36.5078C191.496 36.4249 192.077 36.4249 192.906 36.5078C193.736 36.5907 194.544 36.7566 195.332 37.0054C196.12 37.2127 196.617 37.5237 196.825 37.9384C196.908 38.0628 197.011 38.0835 197.136 38.0006C197.26 37.9591 197.385 37.9384 197.509 37.9384C198.131 38.6433 198.525 39.5556 198.691 40.6752C198.857 41.7948 198.898 43.0181 198.815 44.345C198.732 45.6305 198.629 46.8952 198.504 48.1392C198.421 48.9271 198.338 49.6942 198.255 50.4406C198.214 51.1455 198.193 51.7883 198.193 52.3688ZM195.021 70.9666C194.44 70.2202 193.736 69.6189 192.906 69.1628C192.118 68.6652 191.372 68.1261 190.667 67.5456C189.962 66.9236 189.464 66.115 189.174 65.1198C188.884 65.1613 188.656 65.1405 188.49 65.0576C188.366 64.9747 188.262 64.871 188.179 64.7466C188.096 64.6222 187.992 64.5185 187.868 64.4356C187.744 64.3527 187.578 64.3112 187.37 64.3112C186.458 64.8917 185.898 65.6796 185.691 66.6748C185.484 67.6285 185.38 68.6652 185.38 69.7848C185.38 69.9507 185.38 70.1165 185.38 70.2824C185.38 70.4068 185.38 70.5312 185.38 70.6556C185.38 71.5264 185.359 72.4179 185.318 73.3302C185.276 74.201 185.069 75.0303 184.696 75.8182C185.318 75.6938 185.898 75.4865 186.437 75.1962C187.018 74.8645 187.578 74.5327 188.117 74.201C188.614 73.9107 189.091 73.6619 189.547 73.4546C190.004 73.2058 190.397 73.0814 190.729 73.0814C190.978 72.0033 191.538 71.402 192.409 71.2776C193.321 71.1117 194.192 71.0081 195.021 70.9666ZM200.619 62.1964C200.702 62.1135 200.681 62.0098 200.557 61.8854C200.474 61.761 200.432 61.6573 200.432 61.5744C200.018 61.6159 199.582 61.6366 199.126 61.6366C198.712 61.6366 198.276 61.6573 197.82 61.6988C196.41 61.6988 195 61.7817 193.59 61.9476C192.181 62.072 190.854 62.4452 189.61 63.0672C190.315 63.0672 190.895 63.2745 191.351 63.6892C191.807 64.0624 192.263 64.4563 192.72 64.871C193.176 65.2442 193.715 65.4723 194.337 65.5552C195.208 65.6381 196.078 65.3893 196.949 64.8088C197.861 64.2283 198.712 63.6477 199.499 63.0672C199.707 62.9013 199.893 62.7562 200.059 62.6318C200.267 62.4659 200.453 62.3208 200.619 62.1964ZM189.61 58.8376C189.61 58.8376 189.61 58.8169 189.61 58.7754C189.651 58.5681 189.651 58.34 189.61 58.0912C189.61 57.8009 189.464 57.5729 189.174 57.407C189.091 57.7802 188.884 58.0497 188.552 58.2156C188.22 58.34 187.868 58.4437 187.495 58.5266C187.163 58.6095 186.894 58.7961 186.686 59.0864C187.059 59.1279 187.391 59.1279 187.681 59.0864C188.013 59.0449 188.324 59.0035 188.614 58.962C188.78 58.9205 188.946 58.8998 189.112 58.8998C189.278 58.8583 189.444 58.8376 189.61 58.8376ZM271.216 48.2636C270.801 48.7197 270.449 49.0515 270.159 49.2588C269.868 49.4661 269.557 49.632 269.226 49.7564C268.935 49.8808 268.521 50.1089 267.982 50.4406C267.691 51.809 267.546 53.2189 267.546 54.6702C267.546 56.1215 267.567 57.5521 267.608 58.962C267.691 60.8695 267.691 62.7562 267.608 64.6222C267.567 66.4467 267.173 68.1676 266.427 69.7848C266.261 69.9921 266.116 70.0958 265.991 70.0958C265.908 70.0958 265.805 70.0958 265.68 70.0958C265.473 70.0129 265.286 70.0543 265.12 70.2202C264.623 69.847 264.167 69.4323 263.752 68.9762C263.337 68.5201 263.068 67.9188 262.943 67.1724C262.073 67.4212 261.077 67.5456 259.958 67.5456C258.88 67.5456 257.739 67.5249 256.537 67.4834C255.085 67.4005 253.634 67.3797 252.183 67.4212C250.731 67.4627 249.467 67.7529 248.389 68.292C247.269 67.7115 246.44 66.8407 245.901 65.6796C245.362 64.5185 244.76 63.4197 244.097 62.383C244.553 62.0513 244.864 61.5329 245.03 60.828C245.237 60.0816 245.362 59.4389 245.403 58.8998C244.574 58.7754 243.848 58.8583 243.226 59.1486C242.645 59.4389 242.127 59.8328 241.671 60.3304C241.09 60.9939 240.551 61.7403 240.054 62.5696C239.598 63.3989 239.121 64.1453 238.623 64.8088C239.909 65.3064 241.173 65.9077 242.417 66.6126C243.661 67.3175 244.968 68.0017 246.336 68.6652C247.704 69.3287 249.197 69.847 250.814 70.2202C252.183 70.5519 253.551 70.7593 254.92 70.8422C256.329 70.8837 257.698 70.9666 259.025 71.091C260.393 71.2154 261.699 71.5057 262.943 71.9618C263.773 72.2521 264.561 72.6667 265.307 73.2058C266.053 73.7449 266.862 74.0559 267.733 74.1388C268.023 74.8852 268.604 75.4657 269.474 75.8804C269.474 76.5853 269.62 77.0829 269.91 77.3732C269.868 77.7879 269.64 78.1196 269.226 78.3684C268.852 78.6587 268.479 78.9075 268.106 79.1148C267.774 79.3221 267.588 79.5502 267.546 79.799C264.561 80.6283 261.845 80.8357 259.398 80.421C256.951 80.0478 254.546 79.5502 252.183 78.9282C251.934 78.8453 251.664 78.7623 251.374 78.6794C251.125 78.6379 250.856 78.5757 250.566 78.4928C250.192 77.8708 249.591 77.3525 248.762 76.9378C247.974 76.5231 247.207 76.0877 246.46 75.6316C245.755 75.134 245.32 74.4913 245.154 73.7034C243.578 72.8741 242.044 71.9825 240.551 71.0288C239.1 70.0751 237.587 69.1628 236.011 68.292C234.518 69.9921 232.984 71.6923 231.408 73.3924C229.832 75.0511 228.111 76.5646 226.245 77.933C224.421 79.3014 222.327 80.421 219.963 81.2918C219.714 81.043 219.403 80.8564 219.03 80.732C218.698 80.6491 218.367 80.5247 218.035 80.3588C217.703 80.1929 217.475 79.8612 217.351 79.3636C217.6 79.3221 217.807 79.2392 217.973 79.1148C218.18 78.9904 218.387 78.866 218.595 78.7416C218.844 78.5343 219.092 78.3684 219.341 78.244C219.59 78.1196 219.86 78.1196 220.15 78.244C221.477 76.9585 222.845 75.6523 224.255 74.3254C225.706 72.9985 227.075 71.5886 228.36 70.0958C229.687 68.5615 230.807 66.8614 231.719 64.9954C231.221 64.2905 230.62 63.6685 229.915 63.1294C229.252 62.5903 228.609 62.0513 227.987 61.5122C227.075 62.0927 226.204 62.7977 225.375 63.627C224.545 64.4149 223.695 65.1613 222.824 65.8662C221.954 66.5297 221 66.9651 219.963 67.1724C219.839 67.0895 219.714 67.048 219.59 67.048C219.466 67.0065 219.32 66.9858 219.155 66.9858C218.864 66.9443 218.574 66.8821 218.284 66.7992C218.035 66.7163 217.869 66.4882 217.786 66.115C219.901 64.2905 221.871 62.3001 223.695 60.1438C225.52 57.9875 227.241 55.7691 228.858 53.4884C228.609 53.1152 228.298 52.9493 227.925 52.9908C227.552 52.9908 227.178 53.053 226.805 53.1774C226.639 53.2189 226.473 53.2603 226.308 53.3018C226.142 53.3018 225.976 53.3018 225.81 53.3018C225.727 53.3018 225.582 53.2396 225.375 53.1152C225.084 52.9079 224.877 52.8249 224.753 52.8664C224.504 52.9079 224.255 52.9908 224.006 53.1152C223.799 53.2396 223.592 53.3847 223.384 53.5506C223.135 53.7165 222.887 53.8616 222.638 53.986C222.43 54.1104 222.182 54.1726 221.891 54.1726C221.435 54.1311 220.938 53.9031 220.399 53.4884C219.901 53.0737 219.466 52.7213 219.092 52.431C218.968 52.3481 218.781 52.2237 218.533 52.0578C218.118 51.809 217.745 51.5395 217.413 51.2492C217.081 50.9175 216.998 50.4406 217.164 49.8186C217.454 49.8601 217.6 49.7149 217.6 49.3832C218.927 49.632 220.523 49.7149 222.389 49.632C224.255 49.5491 226.162 49.3832 228.111 49.1344C230.06 48.8441 231.823 48.5539 233.398 48.2636C233.44 47.5172 233.378 46.8745 233.212 46.3354C233.087 46.3769 232.922 46.3976 232.714 46.3976C232.507 46.3976 232.279 46.3976 232.03 46.3976C231.242 46.3976 230.33 46.4598 229.293 46.5842C228.298 46.6671 227.51 47.0196 226.93 47.6416C225.934 47.6001 225.188 47.3306 224.69 46.833C224.193 46.3354 223.737 45.7756 223.322 45.1536C222.949 44.5316 222.41 44.0547 221.705 43.723C221.705 43.3498 221.829 43.1839 222.078 43.2254C222.368 43.2254 222.534 43.0388 222.576 42.6656C223.363 43.1217 224.317 43.3291 225.437 43.2876C226.598 43.2047 227.78 43.101 228.982 42.9766C229.604 42.8937 230.226 42.8315 230.848 42.79C231.47 42.7071 232.051 42.6656 232.59 42.6656C232.714 42.4168 232.756 42.168 232.714 41.9192C232.714 41.6289 232.693 41.3594 232.652 41.1106C232.611 40.9033 232.59 40.7581 232.59 40.6752C231.553 40.5923 230.434 40.5715 229.231 40.613C228.028 40.613 227.116 40.8618 226.494 41.3594C225.416 40.4886 224.483 39.4934 223.695 38.3738C222.949 37.2542 222.348 36.0724 221.891 34.8284C222.265 34.9113 222.617 35.015 222.949 35.1394C223.322 35.2223 223.674 35.3053 224.006 35.3882C225.333 35.7614 226.66 36.0724 227.987 36.3212C229.355 36.57 230.89 36.5078 232.59 36.1346C232.88 34.7247 232.839 33.5844 232.465 32.7136C232.092 31.8013 231.657 30.9513 231.159 30.1634C230.869 29.7073 230.599 29.2511 230.351 28.795C230.102 28.3389 229.894 27.8205 229.729 27.24C229.812 26.9497 229.936 26.8046 230.102 26.8046C230.309 26.8046 230.496 26.7839 230.662 26.7424C230.869 26.6595 230.993 26.4521 231.035 26.1204C232.403 26.5765 233.626 27.1571 234.705 27.862C235.824 28.5669 236.84 29.3548 237.752 30.2256C237.669 31.1379 237.607 31.9672 237.566 32.7136C237.524 33.46 237.524 34.3101 237.566 35.2638C237.898 35.2223 238.229 35.1187 238.561 34.9528C238.934 34.7455 239.307 34.6418 239.681 34.6418C240.759 34.6418 241.837 34.9943 242.915 35.6992C243.993 36.3627 244.885 37.0883 245.59 37.8762C245.258 38.6641 244.677 39.1202 243.848 39.2446C243.06 39.369 242.189 39.4519 241.236 39.4934C240.697 39.4934 240.137 39.5141 239.556 39.5556C239.017 39.5556 238.499 39.6385 238.001 39.8044C237.669 39.9703 237.441 40.2398 237.317 40.613C237.193 40.9447 237.13 41.3387 237.13 41.7948C238.25 41.5875 239.577 41.6911 241.111 42.1058C242.645 42.479 243.993 43.0181 245.154 43.723C244.698 44.4694 244.014 44.9877 243.102 45.278C242.189 45.5683 241.173 45.7549 240.054 45.8378C238.934 45.9207 237.815 46.0037 236.695 46.0866C236.571 46.3769 236.467 46.7293 236.384 47.144C236.301 47.5587 236.26 47.8697 236.26 48.077C238.043 47.7038 239.722 47.6623 241.298 47.9526C242.915 48.2429 244.408 48.7819 245.776 49.5698C245.818 48.8649 245.714 48.3258 245.465 47.9526C245.216 47.5794 244.926 47.2477 244.594 46.9574C244.429 46.7915 244.263 46.6257 244.097 46.4598C243.931 46.2939 243.786 46.1073 243.661 45.9C244.2 45.7341 244.491 45.4439 244.532 45.0292C244.574 45.0292 244.636 45.0292 244.719 45.0292C245.092 44.9877 245.507 44.9877 245.963 45.0292C246.419 45.0292 246.792 45.2365 247.082 45.6512C247.912 45.5683 248.554 45.1329 249.011 44.345C249.508 43.5157 250.027 42.7278 250.566 41.9814C250.649 41.8985 250.711 41.7948 250.752 41.6704C250.835 41.546 250.918 41.4423 251.001 41.3594C251.416 40.8203 251.789 40.2813 252.121 39.7422C252.452 39.1617 252.452 38.6848 252.121 38.3116C251.747 38.2701 251.395 38.2701 251.063 38.3116C250.773 38.3116 250.483 38.3323 250.192 38.3738C249.861 38.4153 249.508 38.4567 249.135 38.4982C248.762 38.5397 248.306 38.5397 247.767 38.4982C247.228 37.7518 246.564 37.1298 245.776 36.6322C244.988 36.0931 244.429 35.3467 244.097 34.393C244.263 34.2686 244.511 34.2271 244.843 34.2686C245.175 34.2686 245.486 34.3723 245.776 34.5796C247.352 34.7455 248.886 34.7455 250.379 34.5796C251.913 34.3723 253.427 34.1442 254.92 33.8954C255.625 33.771 256.35 33.6673 257.097 33.5844C257.843 33.46 258.569 33.3563 259.274 33.2734C259.896 32.9002 260.683 32.7551 261.637 32.838C262.591 32.8795 263.503 33.1075 264.374 33.5222C265.286 33.8954 265.97 34.4137 266.427 35.0772C266.924 35.6992 267.007 36.4041 266.675 37.192C264.644 37.1505 262.86 37.192 261.326 37.3164C259.833 37.3993 258.237 37.5445 256.537 37.7518C256.329 37.7518 256.122 37.7725 255.915 37.814C255.749 37.814 255.562 37.8347 255.355 37.8762C255.396 38.0421 255.479 38.2079 255.604 38.3738C255.728 38.5397 255.873 38.7055 256.039 38.8714C256.412 39.2861 256.723 39.7629 256.972 40.302C257.221 40.7996 257.117 41.3594 256.661 41.9814C256.039 41.9399 255.542 42.1473 255.168 42.6034C254.795 43.0181 254.505 43.412 254.298 43.7852C254.173 43.9511 254.09 44.0755 254.049 44.1584L256.723 44.2206C257.553 44.2621 258.341 44.1999 259.087 44.034C259.833 43.8681 260.393 43.4742 260.766 42.8522C261.72 43.3913 262.715 43.8059 263.752 44.0962C264.789 44.345 265.805 44.6145 266.8 44.9048C267.795 45.1951 268.666 45.589 269.412 46.0866C270.2 46.5842 270.801 47.3099 271.216 48.2636ZM262.757 64.8088C262.964 62.072 263.026 59.2315 262.943 56.2874C262.86 53.3018 262.715 50.4821 262.508 47.8282C261.513 47.3306 260.518 47.1855 259.522 47.3928C260.144 47.9319 260.497 48.5331 260.58 49.1966C260.704 49.8186 260.704 50.6065 260.58 51.5602C260.497 52.431 260.455 53.364 260.455 54.3592C260.455 55.3544 260.476 56.3703 260.518 57.407C260.559 58.6925 260.58 59.9572 260.58 61.2012C260.58 62.4037 260.497 63.5233 260.331 64.56C260.58 64.5185 260.787 64.5185 260.953 64.56C261.119 64.6015 261.285 64.6429 261.451 64.6844C261.658 64.7259 261.845 64.7673 262.01 64.8088C262.218 64.8503 262.467 64.8503 262.757 64.8088ZM245.776 50.6894C244.657 51.2699 243.288 51.6224 241.671 51.7468C240.095 51.8712 238.478 51.9541 236.819 51.9956C235.161 52.0371 233.668 52.2444 232.341 52.6176C232.465 52.9079 232.673 53.2396 232.963 53.6128C233.295 53.9445 233.668 54.1933 234.083 54.3592C236.488 53.7787 238.561 53.6128 240.303 53.8616C242.086 54.0689 243.91 54.8153 245.776 56.1008V50.6894ZM251.25 64.3734C250.96 63.5026 250.835 62.4659 250.877 61.2634C250.918 60.0194 251.001 58.7339 251.125 57.407C251.125 57.2826 251.125 57.1582 251.125 57.0338C251.167 56.8679 251.188 56.7021 251.188 56.5362C251.312 54.9605 251.333 53.4677 251.25 52.0578C251.208 50.6479 250.773 49.5283 249.944 48.699C249.902 48.8649 249.674 48.9478 249.259 48.9478C249.259 50.6894 249.239 52.4932 249.197 54.3592C249.156 56.1837 249.094 57.9046 249.011 59.5218C248.969 61.0975 248.928 62.383 248.886 63.3782C248.845 64.3319 248.824 64.8088 248.824 64.8088C248.99 64.7259 249.176 64.6844 249.384 64.6844C249.633 64.6429 249.881 64.6222 250.13 64.6222C250.379 64.6222 250.607 64.6222 250.814 64.6222C251.022 64.6222 251.167 64.5393 251.25 64.3734ZM236.882 57.407C236.716 57.4485 236.488 57.4899 236.197 57.5314C235.368 57.6558 234.559 57.7595 233.772 57.8424C233.025 57.9253 232.196 57.8631 231.284 57.6558C230.952 58.1534 230.579 58.6303 230.164 59.0864C229.791 59.5011 229.438 59.9572 229.107 60.4548C230.019 60.7036 230.786 61.0768 231.408 61.5744C232.071 62.072 232.88 62.4245 233.834 62.6318C234.124 62.0513 234.497 61.4915 234.953 60.9524C235.451 60.3719 235.886 59.7913 236.26 59.2108C236.674 58.6303 236.882 58.029 236.882 57.407ZM257.532 64.56C257.366 63.9795 257.242 63.3782 257.159 62.7562C257.076 62.1342 257.055 61.4293 257.097 60.6414C256.558 60.5999 256.018 60.6207 255.479 60.7036C254.982 60.7451 254.505 60.8073 254.049 60.8902C254.132 61.2219 254.152 61.5537 254.111 61.8854C254.07 62.2171 254.028 62.5281 253.987 62.8184C253.904 63.1916 253.841 63.5441 253.8 63.8758C253.8 64.2075 253.883 64.5185 254.049 64.8088C254.298 64.6429 254.609 64.56 254.982 64.56C255.355 64.56 255.749 64.56 256.164 64.56C256.412 64.56 256.64 64.5807 256.848 64.6222C257.097 64.6222 257.325 64.6015 257.532 64.56ZM257.345 52.1822C257.345 52.0163 257.345 51.8712 257.345 51.7468C257.345 51.5809 257.345 51.4358 257.345 51.3114C257.345 50.5235 257.283 49.7979 257.159 49.1344C257.076 48.4709 256.765 48.0355 256.226 47.8282C256.101 47.9526 255.936 48.0148 255.728 48.0148C255.521 48.0148 255.293 48.0148 255.044 48.0148C254.712 48.0148 254.401 48.0355 254.111 48.077C253.862 48.1185 253.696 48.2636 253.613 48.5124C254.152 48.8027 254.484 49.3003 254.609 50.0052C254.774 50.6687 254.816 51.4773 254.733 52.431C255.023 52.4725 255.272 52.4725 255.479 52.431C255.687 52.3895 255.873 52.3481 256.039 52.3066C256.247 52.2651 256.433 52.2237 256.599 52.1822C256.806 52.1407 257.055 52.1407 257.345 52.1822ZM257.345 54.7946C257.097 54.7946 256.869 54.8153 256.661 54.8568C256.454 54.8983 256.247 54.9397 256.039 54.9812C255.79 55.0227 255.521 55.0641 255.231 55.1056C254.982 55.1471 254.671 55.1263 254.298 55.0434V58.029H257.097C257.097 57.9875 257.117 57.9046 257.159 57.7802C257.2 57.407 257.242 56.9923 257.283 56.5362C257.366 56.0386 257.387 55.4581 257.345 54.7946Z" fill="url(#paint1_linear_267_5876)"/>
<path d="M129.531 17.4046C129.437 17.4854 129.302 17.5056 129.127 17.4652C128.993 17.6672 128.811 17.7951 128.582 17.849C128.353 17.9029 128.104 17.9163 127.834 17.8894C127.579 17.849 127.336 17.8019 127.107 17.748C127.013 17.7345 126.919 17.7211 126.824 17.7076C126.744 17.6807 126.67 17.6672 126.602 17.6672C126.131 17.344 125.72 16.9602 125.37 16.5158C125.02 16.0714 124.697 15.6068 124.4 15.122C124.104 14.6237 123.801 14.1457 123.491 13.6878C123.02 12.9875 122.529 12.3007 122.017 11.6274C121.505 10.9406 121.067 10.2134 120.704 9.4458C120.246 9.91713 119.822 10.4221 119.431 10.9608C119.054 11.486 118.664 12.0045 118.26 12.5162C117.869 13.0279 117.425 13.506 116.926 13.9504C117.519 13.9369 118.159 13.8831 118.845 13.7888C119.532 13.6945 120.179 13.5935 120.785 13.4858C120.865 13.4589 120.906 13.405 120.906 13.3242C120.919 13.2299 120.966 13.1761 121.047 13.1626C121.397 13.3377 121.741 13.5195 122.077 13.708C122.414 13.8831 122.643 14.1659 122.764 14.5564C122.279 14.5968 121.714 14.6776 121.067 14.7988C120.421 14.92 119.788 14.9806 119.169 14.9806C118.697 14.9806 118.26 14.92 117.856 14.7988C117.452 14.6641 117.122 14.4285 116.866 14.0918C116.341 14.6035 115.809 15.1557 115.27 15.7482C114.745 16.3273 114.166 16.8659 113.533 17.3642C112.913 17.8625 112.186 18.253 111.351 18.5358C111.203 18.5089 111.102 18.4685 111.048 18.4146C111.008 18.3607 110.934 18.3338 110.826 18.3338C110.853 18.253 110.853 18.1924 110.826 18.152C110.799 18.0981 110.752 18.0443 110.685 17.9904C110.658 17.9635 110.637 17.9433 110.624 17.9298C110.907 17.5797 111.237 17.2767 111.614 17.0208C111.991 16.7515 112.354 16.4821 112.705 16.2128C113.068 15.93 113.371 15.5933 113.614 15.2028C113.667 15.2028 113.715 15.1893 113.755 15.1624C113.809 15.122 113.869 15.1153 113.937 15.1422C113.937 15.1153 113.917 15.1018 113.876 15.1018C113.836 15.0883 113.816 15.0816 113.816 15.0816C113.964 14.9604 114.098 14.8257 114.22 14.6776C114.354 14.516 114.529 14.4083 114.745 14.3544C114.893 14.0716 115.075 13.8225 115.29 13.607C115.506 13.3915 115.721 13.1761 115.937 12.9606C115.99 12.8798 116.017 12.7923 116.017 12.698C116.031 12.5903 116.044 12.4758 116.058 12.3546C116.139 12.3411 116.192 12.3546 116.219 12.395C116.246 12.4219 116.287 12.4287 116.341 12.4152C116.421 12.3613 116.469 12.3007 116.482 12.2334C116.509 12.1661 116.522 12.092 116.522 12.0112C116.522 11.9573 116.522 11.9035 116.522 11.8496C116.536 11.7957 116.563 11.7419 116.603 11.688C116.644 11.7015 116.664 11.7284 116.664 11.7688C116.664 11.8092 116.684 11.8294 116.724 11.8294C117.048 11.1965 117.418 10.6107 117.835 10.072C118.266 9.51987 118.65 8.93407 118.987 8.3146C118.933 8.12606 118.839 7.97793 118.704 7.8702C118.569 7.749 118.489 7.5672 118.462 7.3248C118.502 7.2844 118.596 7.27767 118.744 7.3046C118.825 7.31807 118.906 7.3248 118.987 7.3248C119.081 7.3248 119.169 7.27767 119.249 7.1834C119.465 7.2238 119.64 7.3046 119.775 7.4258C119.923 7.547 120.105 7.62107 120.32 7.648C120.401 7.85 120.515 8.0116 120.663 8.1328C120.812 8.24053 120.913 8.40887 120.966 8.6378C121.68 9.18993 122.353 9.80267 122.986 10.476C123.633 11.1359 124.266 11.7823 124.885 12.4152C125.006 12.5364 125.114 12.6778 125.208 12.8394C125.303 12.9875 125.417 13.1155 125.552 13.2232C125.956 13.5329 126.387 13.809 126.845 14.0514C127.302 14.2803 127.74 14.5362 128.158 14.819C128.575 15.1018 128.925 15.4721 129.208 15.93C129.235 15.9973 129.255 16.0647 129.269 16.132C129.296 16.1993 129.316 16.2599 129.329 16.3138C129.397 16.4889 129.45 16.6572 129.491 16.8188C129.531 16.9804 129.545 17.1757 129.531 17.4046ZM125.229 17.9298C125.175 18.0375 125.094 18.1251 124.986 18.1924C124.878 18.2463 124.804 18.3338 124.764 18.455C124.427 18.5762 124.124 18.7445 123.855 18.96C123.599 19.1755 123.357 19.4044 123.128 19.6468C122.899 19.8892 122.65 20.1114 122.38 20.3134C122.111 20.5154 121.795 20.6703 121.431 20.778C121.296 20.7376 121.175 20.677 121.067 20.5962C120.973 20.5019 120.852 20.4279 120.704 20.374C120.677 20.6433 120.663 20.8992 120.663 21.1416C120.677 21.3705 120.69 21.5995 120.704 21.8284C120.717 22.2728 120.711 22.7037 120.684 23.1212C120.67 23.5387 120.549 23.9965 120.32 24.4948C120.091 24.7103 119.903 24.7641 119.754 24.6564C119.606 24.5487 119.465 24.4005 119.33 24.212C119.263 24.1312 119.216 24.0706 119.189 24.0302C119.148 23.6935 119.135 23.3569 119.148 23.0202C119.162 22.6835 119.175 22.3469 119.189 22.0102C119.202 21.5523 119.209 21.1079 119.209 20.677C119.209 20.2461 119.155 19.8421 119.047 19.465C118.98 19.2361 118.879 18.9937 118.744 18.7378C118.61 18.4819 118.536 18.1924 118.522 17.8692C118.132 17.8423 117.802 17.8827 117.532 17.9904C117.263 18.0847 117.014 18.1991 116.785 18.3338C116.516 18.2665 116.3 18.1385 116.139 17.95C115.99 17.7615 115.856 17.5595 115.735 17.344C115.613 17.1285 115.459 16.9467 115.27 16.7986C115.257 16.7582 115.277 16.7178 115.331 16.6774C115.358 16.6505 115.378 16.6235 115.391 16.5966C115.418 16.5697 115.425 16.5293 115.411 16.4754C115.546 16.4081 115.667 16.3946 115.775 16.435C115.883 16.4754 115.99 16.5293 116.098 16.5966C116.166 16.6505 116.233 16.6976 116.3 16.738C116.368 16.7649 116.442 16.7851 116.522 16.7986C116.738 16.8255 116.967 16.8188 117.209 16.7784C117.452 16.738 117.701 16.6909 117.957 16.637C118.118 16.6101 118.28 16.5831 118.441 16.5562C118.603 16.5158 118.765 16.4889 118.926 16.4754C119.519 16.4215 120.084 16.3879 120.623 16.3744C121.175 16.3609 121.714 16.3273 122.239 16.2734C122.252 16.233 122.273 16.2061 122.3 16.1926C122.327 16.1657 122.347 16.1253 122.36 16.0714C122.885 16.1657 123.316 16.3003 123.653 16.4754C123.99 16.637 124.333 16.8592 124.683 17.142C124.697 17.3575 124.757 17.5258 124.865 17.647C124.973 17.7547 125.094 17.849 125.229 17.9298ZM122.3 17.5258C121.761 17.4315 121.222 17.4248 120.684 17.5056C120.145 17.5729 119.647 17.6941 119.189 17.8692C119.377 18.0308 119.573 18.1857 119.775 18.3338C119.99 18.4685 120.185 18.6233 120.36 18.7984C120.535 18.9735 120.65 19.2159 120.704 19.5256C121 19.2428 121.317 18.9331 121.653 18.5964C121.99 18.2463 122.205 17.8894 122.3 17.5258ZM157.165 13.8696C156.855 14.0581 156.572 14.2399 156.316 14.415C156.061 14.5901 155.852 14.8459 155.69 15.1826C155.542 15.5193 155.448 16.0243 155.407 16.6976C155.394 17.1555 155.38 17.6201 155.367 18.0914C155.354 18.5493 155.273 18.9398 155.125 19.263C155.192 19.2765 155.219 19.3303 155.205 19.4246C155.205 19.5054 155.131 19.5256 154.983 19.4852C154.97 19.5256 154.97 19.5727 154.983 19.6266C155.01 19.667 155.03 19.7074 155.044 19.7478C155.071 19.8017 155.091 19.8623 155.104 19.9296C155.118 19.9835 155.098 20.0441 155.044 20.1114C155.044 20.1114 155.051 20.1181 155.064 20.1316C155.172 20.2393 155.286 20.3673 155.407 20.5154C155.529 20.6635 155.569 20.8117 155.529 20.9598C155.246 20.9733 154.95 20.9935 154.64 21.0204C154.344 21.0339 154.041 21.0473 153.731 21.0608C153.111 21.1147 152.485 21.1618 151.852 21.2022C151.233 21.2291 150.64 21.2157 150.075 21.1618C149.994 21.1618 149.947 21.2157 149.933 21.3234C149.933 21.4177 149.933 21.5187 149.933 21.6264C149.933 21.7207 149.933 21.788 149.933 21.8284C149.731 21.9496 149.536 21.9967 149.347 21.9698C149.172 21.9429 149.051 21.8486 148.984 21.687C148.957 21.6466 148.903 21.5389 148.822 21.3638C148.755 21.1753 148.674 20.9665 148.58 20.7376C148.486 20.5087 148.405 20.2865 148.337 20.071C148.27 19.8555 148.236 19.7007 148.236 19.6064C148.223 19.3371 148.216 19.061 148.216 18.7782C148.216 18.4954 148.216 18.2059 148.216 17.9096C148.216 17.1285 148.196 16.3744 148.156 15.6472C148.129 14.92 148.001 14.3746 147.772 14.011C147.314 14.1457 146.903 14.2601 146.54 14.3544C146.176 14.4352 145.799 14.4823 145.408 14.4958C145.341 14.819 145.381 15.0816 145.53 15.2836C145.691 15.4721 145.866 15.6472 146.055 15.8088C146.109 15.8492 146.163 15.8963 146.216 15.9502C146.27 15.9906 146.317 16.0377 146.358 16.0916C146.641 16.3879 146.883 16.7313 147.085 17.1218C147.287 17.5123 147.516 17.8423 147.772 18.1116C147.718 18.1251 147.664 18.1453 147.61 18.1722C147.57 18.1857 147.523 18.2059 147.469 18.2328C147.294 18.3001 147.125 18.3473 146.964 18.3742C146.802 18.3877 146.593 18.2934 146.338 18.0914C146.176 17.9567 146.014 17.8086 145.853 17.647C145.705 17.4854 145.536 17.3642 145.348 17.2834C145.321 17.6605 145.314 18.0577 145.328 18.4752C145.355 18.8792 145.388 19.2899 145.429 19.7074C145.442 19.9767 145.456 20.2528 145.469 20.5356C145.496 20.8049 145.509 21.0743 145.509 21.3436C145.523 21.8688 145.482 22.3738 145.388 22.8586C145.307 23.3299 145.146 23.7609 144.903 24.1514C144.836 24.1783 144.769 24.1851 144.701 24.1716C144.648 24.1581 144.594 24.1379 144.54 24.111C144.472 24.0841 144.405 24.0571 144.338 24.0302C144.27 24.0167 144.196 24.0167 144.116 24.0302C144.021 23.9629 143.967 23.8955 143.954 23.8282C143.941 23.7609 143.927 23.6935 143.914 23.6262C143.914 23.5858 143.914 23.5589 143.914 23.5454C143.092 23.0067 142.351 22.4007 141.692 21.7274C141.705 21.4715 141.685 21.283 141.631 21.1618C141.591 21.0406 141.537 20.9194 141.469 20.7982C141.442 20.7578 141.409 20.7107 141.368 20.6568C141.341 20.6029 141.315 20.5423 141.288 20.475C141.086 20.5693 140.924 20.7039 140.803 20.879C140.695 21.0541 140.547 21.1955 140.358 21.3032C140.103 21.3705 139.874 21.3705 139.672 21.3032C139.47 21.2359 139.247 21.1483 139.005 21.0406C138.965 21.0137 138.917 20.9935 138.864 20.98C138.823 20.9531 138.776 20.9261 138.722 20.8992C138.682 20.8319 138.668 20.778 138.682 20.7376C138.709 20.6972 138.742 20.6568 138.783 20.6164C138.796 20.5895 138.81 20.5625 138.823 20.5356C138.85 20.4952 138.864 20.4481 138.864 20.3942C139.295 20.1114 139.672 19.7747 139.995 19.3842C140.318 18.9937 140.628 18.5897 140.924 18.1722C141.234 17.7547 141.557 17.3642 141.894 17.0006C141.894 16.8929 141.961 16.7515 142.096 16.5764C142.23 16.3879 142.385 16.1859 142.56 15.9704C142.749 15.7549 142.917 15.5529 143.065 15.3644C143.227 15.1759 143.335 15.021 143.388 14.8998C143.092 14.819 142.789 14.819 142.479 14.8998C142.183 14.9806 141.887 15.0816 141.591 15.2028C141.456 15.2432 141.328 15.2903 141.207 15.3442C141.086 15.3846 140.958 15.425 140.823 15.4654C140.379 15.1557 140.028 14.7921 139.773 14.3746C139.53 13.9437 139.295 13.5397 139.066 13.1626C139.308 13.1626 139.598 13.2299 139.934 13.3646C140.271 13.4993 140.567 13.6205 140.823 13.7282C141.375 13.6205 141.921 13.5733 142.459 13.5868C142.998 13.5868 143.55 13.4925 144.116 13.304C144.116 13.2501 144.116 13.1693 144.116 13.0616C144.116 12.6711 144.102 12.2267 144.075 11.7284C144.062 11.2301 143.988 10.8261 143.853 10.5164C143.409 10.6107 143.025 10.7588 142.702 10.9608C142.378 11.1628 142.022 11.2907 141.631 11.3446C141.483 11.3311 141.341 11.2301 141.207 11.0416C141.086 10.8531 140.937 10.6982 140.762 10.577C141.032 10.2538 141.389 9.98447 141.833 9.769C142.291 9.54007 142.769 9.3246 143.267 9.1226C143.765 8.90713 144.21 8.6782 144.6 8.4358C144.587 8.28767 144.513 8.1934 144.378 8.153C144.244 8.09913 144.136 8.02507 144.055 7.9308C144.297 7.78267 144.587 7.6884 144.924 7.648C145.26 7.6076 145.604 7.6278 145.954 7.7086C146.304 7.77593 146.614 7.9106 146.883 8.1126C147.166 8.30113 147.368 8.57047 147.489 8.9206C147.098 9.09567 146.701 9.264 146.297 9.4256C145.907 9.5872 145.496 9.74207 145.065 9.8902C145.402 10.2134 145.631 10.6443 145.752 11.183C145.886 11.7082 145.819 12.2065 145.55 12.6778C145.698 12.7586 145.88 12.8192 146.095 12.8596C146.311 12.8865 146.526 12.9269 146.742 12.9808C146.957 13.0212 147.139 13.1087 147.287 13.2434C147.381 13.0549 147.496 12.9202 147.63 12.8394C147.765 12.7586 147.947 12.7451 148.176 12.799C148.391 12.8394 148.654 12.8529 148.964 12.8394C149.287 12.8125 149.617 12.7788 149.953 12.7384C150.102 12.7249 150.243 12.7115 150.378 12.698C150.526 12.6845 150.667 12.6711 150.802 12.6576C151.192 12.6307 151.563 12.597 151.913 12.5566C152.263 12.5027 152.566 12.4691 152.822 12.4556C152.849 12.3883 152.882 12.3344 152.923 12.294C152.977 12.2536 153.01 12.193 153.024 12.1122C153.576 12.0583 154.054 12.1055 154.458 12.2536C154.875 12.3883 155.266 12.5431 155.63 12.7182C155.791 12.7855 155.946 12.8529 156.094 12.9202C156.242 12.9875 156.397 13.0481 156.559 13.102C156.586 13.2097 156.559 13.2501 156.478 13.2232C156.397 13.1828 156.357 13.1626 156.357 13.1626C156.438 13.3377 156.566 13.4656 156.741 13.5464C156.929 13.6137 157.071 13.7215 157.165 13.8696ZM153.286 13.7888C152.977 13.8292 152.613 13.8629 152.196 13.8898C151.778 13.9033 151.354 13.9302 150.923 13.9706C150.492 13.9975 150.102 14.0581 149.751 14.1524C149.751 14.2332 149.751 14.3275 149.751 14.4352C149.765 14.5295 149.778 14.6305 149.792 14.7382C149.819 15.1557 149.846 15.6472 149.873 16.2128C149.913 16.7784 149.94 17.3709 149.953 17.9904C149.967 18.6099 149.96 19.2091 149.933 19.7882C150.324 19.8017 150.674 19.7949 150.984 19.768C151.293 19.7411 151.603 19.7141 151.913 19.6872C152.128 19.6603 152.344 19.6401 152.559 19.6266C152.775 19.5997 153.01 19.5795 153.266 19.566C153.28 19.4044 153.293 19.2495 153.307 19.1014C153.32 18.9398 153.334 18.7715 153.347 18.5964C153.401 17.8827 153.441 17.1218 153.468 16.3138C153.495 15.5058 153.435 14.6641 153.286 13.7888ZM144.055 20.9598C144.055 20.8655 144.055 20.7645 144.055 20.6568C144.068 20.5356 144.075 20.4144 144.075 20.2932C144.089 19.9161 144.095 19.5189 144.095 19.1014C144.109 18.6705 144.109 18.2732 144.095 17.9096C144.082 17.5325 144.048 17.2497 143.994 17.0612C143.483 17.5729 142.964 18.1318 142.439 18.7378C141.914 19.3438 141.537 19.9027 141.308 20.4144C141.591 20.4548 141.873 20.576 142.156 20.778C142.439 20.9665 142.722 21.1147 143.005 21.2224C143.193 21.2763 143.368 21.2897 143.53 21.2628C143.705 21.2359 143.88 21.1349 144.055 20.9598ZM184.213 13.5464C183.876 13.9235 183.432 14.112 182.879 14.112C182.327 14.0985 181.755 14.0447 181.162 13.9504C180.893 13.91 180.624 13.8763 180.354 13.8494C180.085 13.809 179.822 13.7888 179.567 13.7888C178.961 13.7888 178.287 13.8023 177.547 13.8292C176.806 13.8561 176.038 13.8965 175.244 13.9504C174.463 14.0043 173.709 14.0649 172.981 14.1322C172.254 14.1995 171.601 14.2803 171.022 14.3746C170.82 14.4015 170.618 14.4487 170.416 14.516C170.227 14.5833 170.052 14.6439 169.891 14.6978C169.85 14.7113 169.797 14.7382 169.729 14.7786C169.662 14.8055 169.581 14.8392 169.487 14.8796C169.271 15.0008 169.036 15.1153 168.78 15.223C168.537 15.3173 168.349 15.3173 168.214 15.223C167.985 15.0479 167.77 14.8257 167.568 14.5564C167.379 14.2871 167.184 14.0245 166.982 13.7686C166.78 13.4993 166.551 13.2905 166.295 13.1424C166.363 13.0885 166.403 13.0414 166.416 13.001C166.43 12.9471 166.437 12.8933 166.437 12.8394C166.437 12.7317 166.47 12.6711 166.538 12.6576C167.224 12.8865 168.059 12.9741 169.042 12.9202C170.025 12.8663 171.049 12.7788 172.113 12.6576C172.557 12.6037 173.002 12.5566 173.446 12.5162C173.89 12.4758 174.328 12.4421 174.759 12.4152C174.772 12.2671 174.772 12.0785 174.759 11.8496C174.759 11.6072 174.746 11.3648 174.719 11.1224C174.692 10.8665 174.651 10.6645 174.597 10.5164C174.261 10.3413 173.938 10.1528 173.628 9.9508C173.318 9.7488 173.049 9.49967 172.82 9.2034C173.008 9.02833 173.224 8.8802 173.466 8.759C173.709 8.6378 173.938 8.57047 174.153 8.557C174.395 8.54353 174.671 8.5974 174.981 8.7186C175.291 8.82633 175.567 8.97446 175.809 9.163C176.065 9.35153 176.213 9.55353 176.254 9.769C176.267 9.78247 176.261 9.88347 176.234 10.072C176.22 10.2471 176.2 10.4289 176.173 10.6174C176.146 10.8059 176.119 10.9271 176.092 10.981C176.079 11.0214 176.032 11.0349 175.951 11.0214C175.87 11.0079 175.823 11.0147 175.809 11.0416C175.675 11.1897 175.56 11.4187 175.466 11.7284C175.385 12.0247 175.311 12.2469 175.244 12.395C175.917 12.3142 176.671 12.2738 177.506 12.2738C178.355 12.2738 179.19 12.2603 180.011 12.2334C180.092 12.2334 180.105 12.1997 180.051 12.1324C179.998 12.0651 180.004 12.0247 180.072 12.0112C180.637 11.89 181.183 11.89 181.708 12.0112C182.233 12.1324 182.711 12.3277 183.142 12.597C183.586 12.8663 183.943 13.1828 184.213 13.5464ZM182.294 22.5152C182.159 22.6364 181.97 22.7441 181.728 22.8384C181.499 22.9192 181.263 22.9125 181.021 22.8182C180.711 22.4546 180.449 22.0304 180.233 21.5456C180.018 21.0608 179.802 20.5895 179.587 20.1316C179.371 19.6603 179.109 19.2832 178.799 19.0004C178.718 18.6233 178.563 18.3001 178.334 18.0308C178.119 17.7615 177.89 17.4854 177.648 17.2026C177.405 16.9063 177.21 16.5562 177.062 16.1522C177.25 16.0983 177.412 16.1051 177.547 16.1724C177.681 16.2263 177.809 16.2936 177.93 16.3744C178.038 16.4417 178.153 16.5091 178.274 16.5764C178.395 16.6437 178.53 16.6774 178.678 16.6774C179.109 17.0545 179.594 17.4046 180.132 17.7278C180.671 18.0375 181.129 18.4079 181.506 18.8388C181.775 19.1485 181.977 19.5121 182.112 19.9296C182.26 20.3471 182.294 20.8588 182.213 21.4648C182.267 21.5995 182.294 21.7139 182.294 21.8082C182.307 21.889 182.307 21.9698 182.294 22.0506C182.28 22.1179 182.273 22.192 182.273 22.2728C182.273 22.3401 182.28 22.4209 182.294 22.5152ZM173.123 17.849C172.8 18.1318 172.49 18.5089 172.194 18.9802C171.897 19.4515 171.594 19.9498 171.285 20.475C170.975 21.0002 170.645 21.4783 170.295 21.9092C169.958 22.3267 169.581 22.6229 169.164 22.798C169.069 22.8384 168.982 22.8519 168.901 22.8384C168.82 22.8249 168.739 22.8047 168.659 22.7778C168.605 22.7509 168.544 22.7307 168.477 22.7172C168.423 22.7037 168.362 22.7105 168.295 22.7374C168.268 22.697 168.221 22.6431 168.154 22.5758C168.1 22.4815 168.032 22.4007 167.952 22.3334C167.871 22.2661 167.736 22.2459 167.548 22.2728C167.548 22.2728 167.682 22.1516 167.952 21.9092C168.221 21.6533 168.537 21.3369 168.901 20.9598C169.278 20.5827 169.615 20.2057 169.911 19.8286C169.978 19.6401 170.086 19.4246 170.234 19.1822C170.396 18.9398 170.551 18.6974 170.699 18.455C170.86 18.1991 170.968 17.9702 171.022 17.7682C170.928 17.5258 170.813 17.3103 170.679 17.1218C170.544 16.9198 170.429 16.6909 170.335 16.435C170.753 16.3003 171.17 16.2869 171.588 16.3946C172.005 16.5023 172.355 16.6841 172.638 16.94C172.934 17.1959 173.096 17.4989 173.123 17.849ZM212.129 19.5458C211.914 19.7747 211.604 19.8825 211.2 19.869C210.796 19.8555 210.331 19.8151 209.806 19.7478C209.644 19.7209 209.483 19.7007 209.321 19.6872C209.16 19.6603 208.998 19.6401 208.836 19.6266C208.392 19.5862 207.995 19.5593 207.645 19.5458C207.294 19.5189 207.005 19.4515 206.776 19.3438C206.655 19.4381 206.439 19.4919 206.13 19.5054C205.833 19.5189 205.51 19.5256 205.16 19.5256C204.958 19.5256 204.756 19.5323 204.554 19.5458C204.352 19.5458 204.17 19.5525 204.009 19.566C203.901 20.172 203.86 20.8655 203.887 21.6466C203.914 22.4277 203.86 23.2491 203.726 24.111C203.726 24.111 203.726 24.1177 203.726 24.1312C203.699 24.2928 203.665 24.4679 203.625 24.6564C203.584 24.8584 203.51 25.0267 203.403 25.1614C203.308 25.3095 203.167 25.3701 202.978 25.3432C202.736 24.9257 202.568 24.4342 202.473 23.8686C202.379 23.3165 202.325 22.7374 202.312 22.1314C202.298 21.5254 202.298 20.9463 202.312 20.3942C202.312 20.273 202.312 20.1585 202.312 20.0508C202.312 19.9431 202.312 19.8353 202.312 19.7276C201.49 19.6737 200.662 19.6939 199.827 19.7882C198.992 19.869 198.198 19.9902 197.444 20.1518C196.689 20.3134 196.023 20.4952 195.444 20.6972C195.269 20.6164 195.127 20.4952 195.02 20.3336C194.912 20.172 194.797 20.0239 194.676 19.8892C194.568 19.7545 194.427 19.6872 194.252 19.6872C194.225 19.5525 194.171 19.4381 194.09 19.3438C194.023 19.2495 193.942 19.1553 193.848 19.061C193.74 18.9533 193.646 18.8388 193.565 18.7176C193.484 18.5829 193.471 18.4213 193.525 18.2328C193.902 18.2867 194.239 18.3877 194.535 18.5358C194.845 18.6705 195.168 18.7849 195.504 18.8792C195.653 18.6907 195.908 18.5829 196.272 18.556C196.649 18.5291 197.053 18.5156 197.484 18.5156C197.605 18.5156 197.726 18.5156 197.848 18.5156C197.969 18.5021 198.09 18.4954 198.211 18.4954C198.427 18.4819 198.662 18.4685 198.918 18.455C199.188 18.4415 199.342 18.4079 199.383 18.354C199.073 18.2328 198.824 18.051 198.635 17.8086C198.46 17.5662 198.305 17.2969 198.171 17.0006C198.05 16.6909 197.915 16.3946 197.767 16.1118C197.632 15.8155 197.457 15.5597 197.242 15.3442C197.403 15.3038 197.578 15.324 197.767 15.4048C197.955 15.4721 198.144 15.5529 198.332 15.6472C198.4 15.6741 198.46 15.7078 198.514 15.7482C198.582 15.7751 198.649 15.8021 198.716 15.829C199.08 15.9771 199.396 16.1387 199.666 16.3138C199.948 16.4754 200.164 16.6909 200.312 16.9602C200.46 17.2161 200.514 17.5595 200.474 17.9904C200.447 18.0847 200.379 18.1453 200.272 18.1722C200.164 18.1857 200.083 18.2261 200.029 18.2934C200.272 18.3203 200.507 18.3271 200.736 18.3136C200.979 18.2867 201.228 18.253 201.484 18.2126C201.618 18.1991 201.753 18.1857 201.888 18.1722C202.022 18.1587 202.164 18.1453 202.312 18.1318C202.231 17.5258 202.197 16.9602 202.211 16.435C202.238 15.9098 202.218 15.3913 202.15 14.8796C201.383 14.8527 200.682 14.8998 200.049 15.021C199.416 15.1287 198.844 15.2567 198.332 15.4048C197.955 15.122 197.565 14.8594 197.161 14.617C196.77 14.3611 196.454 14.0245 196.211 13.607C196.36 13.4858 196.508 13.4387 196.656 13.4656C196.817 13.4791 196.979 13.5127 197.141 13.5666C197.208 13.5935 197.282 13.6205 197.363 13.6474C197.444 13.6743 197.524 13.6878 197.605 13.6878C197.955 13.7147 198.319 13.708 198.696 13.6676C199.073 13.6137 199.457 13.5599 199.847 13.506C200.211 13.4521 200.581 13.405 200.958 13.3646C201.335 13.3107 201.706 13.2905 202.069 13.304C202.137 12.8865 202.11 12.5297 201.989 12.2334C201.881 11.9371 201.766 11.6745 201.645 11.4456C201.591 11.3513 201.544 11.2638 201.504 11.183C201.463 11.0887 201.43 11.0012 201.403 10.9204C201.214 10.9204 201.026 10.9339 200.837 10.9608C200.649 10.9743 200.467 10.9877 200.292 11.0012C199.942 11.0416 199.605 11.0685 199.282 11.082C198.959 11.0955 198.649 11.0214 198.353 10.8598C198.083 11.2907 197.74 11.7015 197.322 12.092C196.918 12.4691 196.501 12.8057 196.07 13.102C195.908 12.9539 195.733 12.8865 195.545 12.9C195.356 12.9 195.134 12.8529 194.878 12.7586C195.134 12.5027 195.397 12.2401 195.666 11.9708C195.949 11.688 196.191 11.385 196.393 11.0618C196.595 10.7386 196.703 10.3817 196.716 9.9912C196.945 9.93733 197.134 9.80267 197.282 9.5872C197.43 9.35827 197.565 9.1024 197.686 8.8196C197.807 8.5368 197.942 8.30113 198.09 8.1126C197.915 7.9106 197.699 7.70187 197.444 7.4864C197.201 7.25747 197.073 7.01507 197.06 6.7592C197.383 6.70533 197.733 6.6986 198.11 6.739C198.487 6.76593 198.844 6.84673 199.181 6.9814C199.531 7.11607 199.8 7.3248 199.989 7.6076C199.975 7.94427 199.915 8.2136 199.807 8.4156C199.699 8.6176 199.571 8.80613 199.423 8.9812C199.289 9.1428 199.161 9.35827 199.039 9.6276C200.265 9.47947 201.463 9.39867 202.635 9.3852C203.807 9.37173 204.931 9.29767 206.008 9.163C206.089 9.14953 206.163 9.13607 206.231 9.1226C206.311 9.10913 206.385 9.1024 206.453 9.1024C206.695 9.062 206.904 9.04853 207.079 9.062C207.254 9.062 207.483 9.1428 207.766 9.3044C208.102 9.49293 208.392 9.62087 208.634 9.6882C208.89 9.75553 209.065 9.84307 209.16 9.9508C209.227 10.0451 209.24 10.1393 209.2 10.2336C209.173 10.3279 209.16 10.375 209.16 10.375C208.581 10.4827 207.954 10.5568 207.281 10.5972C206.608 10.6241 205.941 10.6443 205.281 10.6578C204.635 10.6578 204.049 10.6915 203.524 10.7588C203.807 11.082 203.948 11.4389 203.948 11.8294C203.948 12.2199 203.914 12.6441 203.847 13.102C203.834 13.1559 203.827 13.1963 203.827 13.2232C203.867 13.2232 203.908 13.2232 203.948 13.2232C204.002 13.2232 204.049 13.2232 204.089 13.2232C204.547 13.2367 205.066 13.2367 205.645 13.2232C206.224 13.2097 206.742 13.1087 207.2 12.9202C207.658 13.0683 208.089 13.2434 208.493 13.4454C208.897 13.6474 209.2 13.9504 209.402 14.3544C209.106 14.516 208.742 14.6103 208.311 14.6372C207.894 14.6507 207.47 14.6574 207.039 14.6574C206.931 14.6574 206.823 14.6574 206.715 14.6574C206.608 14.6574 206.5 14.6574 206.392 14.6574C206.325 14.6574 206.278 14.6911 206.251 14.7584C206.237 14.8123 206.21 14.8527 206.17 14.8796C206.076 14.7853 205.894 14.7315 205.625 14.718C205.355 14.6911 205.059 14.6911 204.736 14.718C204.426 14.7449 204.163 14.7651 203.948 14.7786C203.894 14.7921 203.854 14.7988 203.827 14.7988C203.813 15.0547 203.807 15.3038 203.807 15.5462C203.82 15.7886 203.834 16.0243 203.847 16.2532C203.86 16.536 203.867 16.8255 203.867 17.1218C203.881 17.4181 203.874 17.7278 203.847 18.051C204.17 18.0106 204.507 17.9971 204.857 18.0106C205.221 18.0241 205.577 18.051 205.928 18.0914C206.278 18.1183 206.621 18.1385 206.958 18.152C207.308 18.1655 207.638 18.152 207.948 18.1116C208.015 18.0981 208.096 18.0577 208.19 17.9904C208.298 17.9231 208.385 17.8894 208.453 17.8894C208.668 17.8759 208.904 17.9163 209.16 18.0106C209.429 18.0914 209.705 18.1789 209.988 18.2732C210.028 18.3001 210.075 18.3271 210.129 18.354C210.183 18.3675 210.237 18.3809 210.291 18.3944C210.681 18.5291 211.052 18.6772 211.402 18.8388C211.752 19.0004 211.994 19.2361 212.129 19.5458ZM232.309 19.3034C232.295 19.3169 232.282 19.3371 232.268 19.364C232.215 19.4583 232.147 19.5458 232.066 19.6266C231.986 19.6939 231.851 19.7209 231.662 19.7074C231.514 19.7613 231.413 19.8623 231.359 20.0104C231.306 20.1451 231.205 20.2461 231.056 20.3134C230.976 20.8117 230.881 21.3436 230.774 21.9092C230.666 22.4613 230.524 22.8923 230.349 23.202C230.282 23.3636 230.12 23.4646 229.865 23.505C229.609 23.5589 229.413 23.4781 229.279 23.2626C229.05 23.3299 228.747 23.3636 228.37 23.3636C228.006 23.3771 227.622 23.3838 227.218 23.3838C226.828 23.3973 226.471 23.4309 226.148 23.4848C226.188 23.5791 226.208 23.6935 226.208 23.8282C226.222 23.9763 226.256 24.0841 226.309 24.1514C226.04 24.2591 225.798 24.2322 225.582 24.0706C225.38 23.909 225.185 23.7339 224.996 23.5454C224.929 23.4511 224.855 23.3636 224.774 23.2828C224.707 23.2155 224.633 23.1549 224.552 23.101C224.673 22.8586 224.727 22.5758 224.714 22.2526C224.714 21.9159 224.7 21.5793 224.673 21.2426C224.66 21.0675 224.646 20.8992 224.633 20.7376C224.619 20.5625 224.613 20.3942 224.613 20.2326C224.532 20.2865 224.464 20.3673 224.411 20.475C224.357 20.5827 224.31 20.6972 224.269 20.8184C224.215 20.9531 224.155 21.081 224.087 21.2022C224.02 21.3099 223.926 21.3638 223.805 21.3638C223.872 21.2965 223.933 21.2291 223.986 21.1618C224.04 21.081 224.067 20.9733 224.067 20.8386C223.973 20.8655 223.906 20.9329 223.865 21.0406C223.838 21.1483 223.771 21.2157 223.663 21.2426C223.65 21.3234 223.683 21.3705 223.764 21.384C223.818 21.4109 223.852 21.4311 223.865 21.4446C223.852 21.5523 223.818 21.6399 223.764 21.7072C223.724 21.7745 223.677 21.8419 223.623 21.9092C223.569 21.8823 223.555 21.8419 223.582 21.788C223.609 21.7341 223.636 21.6803 223.663 21.6264C223.704 21.5725 223.731 21.5321 223.744 21.5052C223.677 21.5187 223.636 21.5119 223.623 21.485C223.609 21.4581 223.603 21.4177 223.603 21.3638C223.549 21.3773 223.495 21.4311 223.441 21.5254C223.387 21.6197 223.421 21.687 223.542 21.7274C223.488 21.7543 223.448 21.788 223.421 21.8284C223.407 21.8553 223.394 21.8823 223.38 21.9092C223.367 21.9631 223.347 22.0035 223.32 22.0304C223.293 22.0573 223.239 22.0641 223.158 22.0506C223.158 22.0775 223.172 22.1314 223.199 22.2122C223.226 22.2661 223.239 22.3132 223.239 22.3536C223.239 22.3805 223.199 22.394 223.118 22.394V22.2324C222.983 22.4209 222.822 22.6297 222.633 22.8586C222.444 23.0741 222.263 23.2491 222.088 23.3838C221.791 23.2491 221.529 23.2155 221.3 23.2828C221.071 23.3636 220.956 23.404 220.956 23.404C221.509 22.8788 222.007 22.2593 222.451 21.5456C222.896 20.8184 223.239 20.1451 223.481 19.5256C223.495 19.4852 223.508 19.4313 223.522 19.364C223.549 19.2832 223.569 19.2091 223.582 19.1418C223.596 19.061 223.596 18.96 223.582 18.8388C223.731 18.7849 223.832 18.6974 223.885 18.5762C223.939 18.4415 223.993 18.3069 224.047 18.1722C224.02 18.1722 223.986 18.1991 223.946 18.253C223.919 18.2934 223.906 18.3136 223.906 18.3136C223.933 18.0039 224 17.6739 224.108 17.3238C224.229 16.9602 224.343 16.5899 224.451 16.2128C224.572 15.8223 224.64 15.4452 224.653 15.0816C224.666 14.7853 224.64 14.5025 224.572 14.2332C224.518 13.9639 224.397 13.7215 224.209 13.506C223.778 13.91 223.293 14.3073 222.754 14.6978C222.216 15.0883 221.623 15.3307 220.977 15.425C220.936 15.3577 220.876 15.2903 220.795 15.223C220.727 15.1422 220.674 15.0277 220.633 14.8796L220.31 14.8594C220.377 14.7113 220.546 14.5766 220.815 14.4554C221.084 14.3207 221.307 14.1928 221.482 14.0716C222.384 13.2501 223.246 12.395 224.067 11.5062C224.902 10.6174 225.67 9.66127 226.37 8.6378C226.303 8.4762 226.202 8.355 226.067 8.2742C225.932 8.1934 225.804 8.09913 225.683 7.9914C225.575 7.8702 225.508 7.6884 225.481 7.446C226.208 7.39213 226.835 7.4056 227.36 7.4864C227.885 7.55373 228.242 7.84327 228.43 8.355C229.09 8.57047 229.649 8.88693 230.107 9.3044C230.578 9.72187 230.982 10.1932 231.319 10.7184C231.386 10.8127 231.407 10.8935 231.38 10.9608C231.353 11.0281 231.319 11.0887 231.279 11.1426C231.225 11.2234 231.191 11.284 231.178 11.3244C230.841 11.2705 230.538 11.183 230.269 11.0618C229.999 10.9271 229.73 10.7992 229.461 10.678C229.312 10.3413 229.117 10.0518 228.875 9.8094C228.646 9.55353 228.363 9.35827 228.026 9.2236C227.865 9.35827 227.717 9.5064 227.582 9.668C227.447 9.8296 227.34 10.0181 227.259 10.2336C227.595 10.3817 227.858 10.577 228.047 10.8194C228.249 11.0618 228.249 11.4187 228.047 11.89C228.222 11.9977 228.39 12.0045 228.552 11.9102C228.727 11.8025 228.848 11.7015 228.915 11.6072C229.44 11.6207 229.932 11.7149 230.39 11.89C230.861 12.0516 231.265 12.3277 231.602 12.7182C231.588 12.9202 231.521 13.0751 231.4 13.1828C231.279 13.2771 231.144 13.3646 230.996 13.4454C230.915 13.9033 230.848 14.3679 230.794 14.8392C230.753 15.2971 230.693 15.7482 230.612 16.1926C230.531 16.637 230.383 17.0612 230.168 17.4652C229.939 17.4517 229.676 17.4652 229.38 17.5056C229.084 17.5325 228.774 17.5662 228.451 17.6066C227.966 17.6605 227.474 17.7076 226.976 17.748C226.478 17.7884 226.033 17.7749 225.643 17.7076C225.495 17.7749 225.394 17.8961 225.34 18.0712C225.286 18.2328 225.232 18.4011 225.178 18.5762C225.394 18.5762 225.71 18.5829 226.128 18.5964C226.559 18.5964 227.003 18.5829 227.461 18.556C227.932 18.5291 228.329 18.4752 228.653 18.3944C228.801 18.354 228.922 18.2934 229.016 18.2126C229.124 18.1318 229.245 18.0847 229.38 18.0712C229.42 18.0577 229.514 18.0645 229.663 18.0914C229.824 18.1183 229.986 18.152 230.147 18.1924C230.322 18.2193 230.444 18.2463 230.511 18.2732C230.834 18.3675 231.144 18.5291 231.44 18.758C231.75 18.9735 232.039 19.1553 232.309 19.3034ZM238.349 9.466C238.241 10.0451 238.12 10.7251 237.985 11.5062C237.864 12.2873 237.77 13.1155 237.702 13.9908C237.635 14.8661 237.628 15.7549 237.682 16.6572C237.736 17.4113 237.81 18.1722 237.904 18.9398C237.998 19.6939 238.052 20.4413 238.066 21.182C238.079 21.7207 238.046 22.2526 237.965 22.7778C237.897 23.2895 237.763 23.7811 237.561 24.2524C237.507 24.3197 237.44 24.3871 237.359 24.4544C237.291 24.5217 237.224 24.5891 237.157 24.6564C236.618 24.5621 236.073 24.4207 235.521 24.2322C234.982 24.0437 234.49 23.7945 234.046 23.4848C233.602 23.1885 233.258 22.8115 233.016 22.3536C233.002 22.2863 233.016 22.2459 233.056 22.2324C233.11 22.2189 233.164 22.2122 233.218 22.2122C233.204 22.1045 233.144 22.0439 233.036 22.0304C232.942 22.0035 232.888 21.9361 232.874 21.8284C232.942 21.8553 233.002 21.8823 233.056 21.9092C233.11 21.9227 233.171 21.9429 233.238 21.9698C233.629 22.1179 234.026 22.2459 234.43 22.3536C234.834 22.4479 235.319 22.4613 235.884 22.394C236.14 21.7072 236.302 20.9598 236.369 20.1518C236.436 19.3438 236.457 18.5089 236.43 17.647C236.416 17.1622 236.389 16.6774 236.349 16.1926C236.322 15.6943 236.288 15.2028 236.248 14.718C236.194 14.0581 236.147 13.405 236.106 12.7586C236.066 12.1122 236.046 11.486 236.046 10.88C236.046 10.8261 236.046 10.779 236.046 10.7386C236.059 10.6847 236.066 10.6309 236.066 10.577C236.079 10.5231 236.086 10.4625 236.086 10.3952C236.086 10.3279 236.086 10.2673 236.086 10.2134C236.073 9.8094 235.999 9.43907 235.864 9.1024C235.729 8.75227 235.588 8.42907 235.44 8.1328C235.305 7.82306 235.204 7.5268 235.137 7.244C235.608 7.244 236.012 7.33827 236.349 7.5268C236.699 7.71533 237.015 7.9308 237.298 8.1732C237.581 8.4156 237.864 8.62433 238.147 8.7994C238.147 8.89367 238.153 8.97447 238.167 9.0418C238.194 9.10913 238.221 9.16973 238.248 9.2236C238.275 9.264 238.295 9.3044 238.308 9.3448C238.322 9.3852 238.335 9.4256 238.349 9.466ZM234.47 12.9C234.47 13.8427 234.457 14.7651 234.43 15.6674C234.403 16.5697 234.383 17.5123 234.369 18.4954C233.938 18.4146 233.602 18.2328 233.359 17.95C233.117 17.6672 232.895 17.3642 232.693 17.041C232.72 16.9333 232.767 16.8188 232.834 16.6976C232.901 16.5764 232.942 16.4619 232.955 16.3542C232.969 16.233 232.975 16.0377 232.975 15.7684C232.989 15.4856 232.989 15.1826 232.975 14.8594C232.975 14.5362 232.969 14.2399 232.955 13.9706C232.942 13.7013 232.915 13.5195 232.874 13.4252C232.821 13.2771 232.746 13.1491 232.652 13.0414C232.558 12.9202 232.47 12.8125 232.39 12.7182C232.268 12.597 232.167 12.4825 232.087 12.3748C232.006 12.2671 231.972 12.1391 231.986 11.991C232.457 11.8967 232.922 11.9506 233.379 12.1526C233.851 12.3411 234.214 12.5903 234.47 12.9ZM229.036 19.4044C228.498 19.3775 227.952 19.3909 227.4 19.4448C226.848 19.4852 226.316 19.5929 225.804 19.768C225.858 20.0912 225.892 20.4885 225.905 20.9598C225.932 21.4311 225.953 21.9361 225.966 22.4748C225.993 22.4748 226.033 22.4748 226.087 22.4748C226.316 22.4748 226.606 22.4748 226.956 22.4748C227.306 22.4613 227.656 22.4344 228.006 22.394C228.356 22.3536 228.653 22.2863 228.895 22.192C228.908 21.99 228.922 21.8015 228.935 21.6264C228.962 21.4513 228.983 21.283 228.996 21.1214C229.036 20.8251 229.063 20.5423 229.077 20.273C229.09 19.9902 229.077 19.7007 229.036 19.4044ZM229.198 14.5362C229.185 14.415 229.185 14.2938 229.198 14.1726C229.211 14.0514 229.225 13.9369 229.238 13.8292C229.252 13.6811 229.259 13.5329 229.259 13.3848C229.272 13.2367 229.252 13.0885 229.198 12.9404C228.74 12.9673 228.208 13.0481 227.602 13.1828C227.01 13.304 226.498 13.3848 226.067 13.4252C226.04 13.6811 226.027 13.8763 226.027 14.011C226.027 14.1322 226.04 14.2938 226.067 14.4958C226.202 14.5093 226.35 14.5093 226.511 14.4958C226.686 14.4689 226.868 14.4419 227.057 14.415C227.42 14.3746 227.791 14.3477 228.168 14.3342C228.558 14.3207 228.902 14.3881 229.198 14.5362ZM228.956 15.2028C228.538 15.3375 228.074 15.425 227.562 15.4654C227.05 15.5058 226.559 15.5597 226.087 15.627C226.033 15.8155 225.966 16.0041 225.885 16.1926C225.818 16.3811 225.757 16.5764 225.703 16.7784C226.404 16.7245 227.01 16.6774 227.521 16.637C228.033 16.5966 228.491 16.5427 228.895 16.4754C228.908 16.435 228.922 16.3744 228.935 16.2936C228.976 16.132 229.009 15.9502 229.036 15.7482C229.063 15.5327 229.036 15.3509 228.956 15.2028ZM227.057 12.0314C227.043 11.9775 227.037 11.9102 227.037 11.8294C227.037 11.7486 227.023 11.6813 226.996 11.6274C226.821 11.6139 226.7 11.5466 226.633 11.4254C226.565 11.3042 226.437 11.2369 226.249 11.2234C226.155 11.4254 226.027 11.6005 225.865 11.7486C225.717 11.8967 225.582 12.0651 225.461 12.2536C225.69 12.294 225.966 12.294 226.289 12.2536C226.626 12.1997 226.882 12.1257 227.057 12.0314ZM266.669 11.9102C266.278 12.0314 265.821 12.092 265.295 12.092C264.784 12.0785 264.245 12.0583 263.679 12.0314C263.343 12.0179 262.999 12.0045 262.649 11.991C262.299 11.9775 261.962 11.9775 261.639 11.991C261.68 12.2603 261.592 12.5903 261.377 12.9808C261.161 13.3713 260.939 13.6945 260.71 13.9504C260.791 14.0312 260.899 14.0985 261.033 14.1524C261.181 14.2063 261.329 14.2601 261.478 14.314C261.707 14.3948 261.915 14.4823 262.104 14.5766C262.292 14.6709 262.373 14.819 262.346 15.021C262.023 15.1287 261.686 15.1961 261.336 15.223C260.986 15.2499 260.622 15.2634 260.245 15.2634C260.003 15.2769 259.747 15.2903 259.478 15.3038C259.208 15.3038 258.926 15.324 258.629 15.3644V15.9906C258.71 16.0849 258.852 16.1253 259.054 16.1118C259.269 16.0983 259.478 16.0512 259.68 15.9704C259.882 15.8896 259.996 15.7953 260.023 15.6876C260.346 15.7684 260.683 15.8357 261.033 15.8896C261.383 15.9435 261.707 16.0243 262.003 16.132C262.299 16.2397 262.515 16.4215 262.649 16.6774C262.353 16.7851 261.983 16.8659 261.538 16.9198C261.094 16.9737 260.622 17.0141 260.124 17.041C259.639 17.0679 259.168 17.0949 258.71 17.1218C258.71 17.1622 258.71 17.243 258.71 17.3642C258.697 17.4181 258.69 17.4854 258.69 17.5662C258.69 17.6335 258.697 17.7143 258.71 17.8086C259.208 17.849 259.666 17.849 260.084 17.8086C260.515 17.7547 260.912 17.7009 261.276 17.647C261.68 17.5797 262.057 17.5325 262.407 17.5056C262.757 17.4787 263.094 17.5123 263.417 17.6066C263.605 17.6605 263.807 17.7413 264.023 17.849C264.238 17.9433 264.413 18.0712 264.548 18.2328C264.696 18.3809 264.73 18.5627 264.649 18.7782C264.151 18.7378 263.605 18.7243 263.013 18.7378C262.42 18.7513 261.848 18.7715 261.296 18.7984C260.959 18.8119 260.636 18.8253 260.326 18.8388C260.03 18.8388 259.761 18.8388 259.518 18.8388C259.828 19.2159 260.205 19.5323 260.649 19.7882C261.094 20.0441 261.565 20.2797 262.063 20.4952C262.575 20.7107 263.067 20.9329 263.538 21.1618C264.023 21.3907 264.454 21.6601 264.831 21.9698C265.221 22.2795 265.524 22.6701 265.74 23.1414C265.268 23.5454 264.777 23.7609 264.265 23.7878C263.753 23.8282 263.262 23.7407 262.791 23.5252C262.319 23.3232 261.909 23.0539 261.558 22.7172C261.222 22.3805 260.993 22.0371 260.872 21.687C260.71 21.4985 260.501 21.2763 260.245 21.0204C260.003 20.7645 259.754 20.5087 259.498 20.2528C259.242 19.9969 259.02 19.7747 258.831 19.5862C258.764 19.8286 258.737 20.1249 258.751 20.475C258.778 20.8251 258.804 21.2022 258.831 21.6062C258.872 22.0102 258.899 22.4209 258.912 22.8384C258.939 23.2559 258.919 23.6464 258.852 24.01C258.703 24.1716 258.542 24.313 258.367 24.4342C258.192 24.5689 257.99 24.6429 257.761 24.6564C257.545 24.6699 257.316 24.6093 257.074 24.4746C256.832 24.3399 256.596 24.1851 256.367 24.01C256.03 23.7407 255.707 23.5185 255.397 23.3434C255.101 23.1818 254.805 23.0202 254.509 22.8586C254.212 22.6835 253.903 22.4681 253.579 22.2122C253.404 22.293 253.229 22.3873 253.054 22.495C252.893 22.5893 252.731 22.6903 252.569 22.798C252.273 23 251.977 23.1751 251.681 23.3232C251.384 23.4713 251.088 23.5252 250.792 23.4848C250.509 23.4579 250.226 23.2693 249.943 22.9192C250.213 22.7307 250.509 22.5691 250.832 22.4344C251.155 22.2997 251.425 22.1247 251.64 21.9092C251.681 21.9092 251.701 21.9294 251.701 21.9698C251.701 21.9967 251.708 22.0237 251.721 22.0506C252.044 21.7274 252.468 21.4042 252.994 21.081C253.519 20.7443 254.057 20.4077 254.61 20.071C255.175 19.7209 255.647 19.3842 256.024 19.061C255.754 19.0475 255.478 19.0745 255.195 19.1418C254.926 19.2091 254.67 19.2832 254.428 19.364C254.28 19.4179 254.138 19.465 254.004 19.5054C253.882 19.5458 253.768 19.5727 253.66 19.5862C253.135 19.667 252.643 19.5795 252.186 19.3236C251.741 19.0543 251.405 18.7109 251.176 18.2934C251.553 18.2799 252.017 18.2665 252.569 18.253C253.135 18.2261 253.714 18.1991 254.307 18.1722C254.899 18.1318 255.451 18.0914 255.963 18.051C256.475 18.0106 256.872 17.9635 257.155 17.9096C257.195 17.8557 257.209 17.7817 257.195 17.6874C257.195 17.5931 257.188 17.4989 257.175 17.4046C257.162 17.3103 257.155 17.243 257.155 17.2026C257.074 17.2161 256.986 17.2295 256.892 17.243C256.798 17.243 256.697 17.243 256.589 17.243C256.306 17.243 256.024 17.2699 255.741 17.3238C255.471 17.3642 255.296 17.4921 255.216 17.7076C254.542 17.6537 253.95 17.546 253.438 17.3844C252.926 17.2093 252.617 16.9804 252.509 16.6976C252.792 16.6437 253.155 16.5899 253.6 16.536C254.044 16.4687 254.502 16.4148 254.973 16.3744C255.445 16.3205 255.875 16.2734 256.266 16.233C256.657 16.1926 256.939 16.1657 257.114 16.1522C257.114 16.1387 257.114 16.1118 257.114 16.0714C257.114 15.9906 257.114 15.8896 257.114 15.7684C257.114 15.6337 257.108 15.5327 257.094 15.4654C256.973 15.4654 256.751 15.4721 256.428 15.4856C256.104 15.4991 255.781 15.5395 255.458 15.6068C255.148 15.6607 254.94 15.7482 254.832 15.8694C254.266 15.8155 253.761 15.6674 253.317 15.425C252.886 15.1826 252.563 14.9335 252.347 14.6776C252.401 14.6103 252.516 14.5766 252.691 14.5766C252.879 14.5766 253.068 14.5901 253.256 14.617C253.458 14.6439 253.593 14.6641 253.66 14.6776C253.849 14.6372 254.084 14.617 254.367 14.617C254.663 14.6035 254.886 14.5766 255.034 14.5362C254.791 14.3477 254.576 14.0649 254.387 13.6878C254.212 13.3107 254.071 12.9606 253.963 12.6374C253.653 12.5566 253.35 12.5566 253.054 12.6374C252.758 12.7047 252.462 12.799 252.165 12.9202C251.802 13.0414 251.438 13.1424 251.075 13.2232C250.711 13.304 250.334 13.2299 249.943 13.001C249.863 12.7855 249.721 12.6307 249.519 12.5364C249.331 12.4287 249.149 12.3075 248.974 12.1728C248.799 12.0381 248.711 11.8294 248.711 11.5466C248.94 11.5197 249.203 11.5062 249.499 11.5062C249.795 11.5062 250.105 11.5062 250.428 11.5062C250.913 11.5062 251.411 11.4995 251.923 11.486C252.448 11.4725 252.926 11.4321 253.357 11.3648C252.819 11.1763 252.401 10.8531 252.105 10.3952C251.822 9.92387 251.593 9.41887 251.418 8.8802C251.903 8.961 252.347 9.1024 252.751 9.3044C253.155 9.49293 253.478 9.7488 253.721 10.072C253.963 10.3952 254.071 10.7925 254.044 11.2638C254.286 11.2369 254.549 11.2167 254.832 11.2032C255.128 11.1763 255.384 11.1426 255.599 11.1022C255.492 10.7521 255.404 10.3683 255.337 9.9508C255.269 9.51987 255.175 9.13607 255.054 8.7994C255.014 8.74553 254.96 8.69167 254.892 8.6378C254.825 8.57047 254.751 8.50987 254.67 8.456C254.495 8.30787 254.34 8.15973 254.206 8.0116C254.071 7.86347 254.044 7.71533 254.125 7.5672C254.421 7.47293 254.751 7.45273 255.115 7.5066C255.478 7.547 255.815 7.64127 256.125 7.7894C256.448 7.93753 256.683 8.1328 256.832 8.3752C256.832 8.55027 256.825 8.72533 256.811 8.9004C256.798 9.062 256.784 9.23033 256.771 9.4054C256.731 9.67473 256.704 9.94407 256.69 10.2134C256.677 10.4827 256.704 10.7588 256.771 11.0416C256.96 11.0416 257.114 11.0416 257.236 11.0416C257.357 11.0281 257.471 11.0147 257.579 11.0012C257.687 11.0012 257.801 11.0012 257.922 11.0012C258.044 10.9877 258.198 10.981 258.387 10.981C258.576 10.1326 258.67 9.3852 258.67 8.7388C258.67 8.07893 258.448 7.47293 258.003 6.9208C258.501 6.82653 258.905 6.83327 259.215 6.941C259.538 7.03527 259.808 7.14973 260.023 7.2844C260.279 7.62107 260.38 7.97793 260.326 8.355C260.286 8.7186 260.198 9.10913 260.064 9.5266C260.01 9.74207 259.949 9.96427 259.882 10.1932C259.828 10.4221 259.788 10.6578 259.761 10.9002C259.909 10.9271 260.104 10.9339 260.346 10.9204C260.589 10.9069 260.804 10.8867 260.993 10.8598C261.074 10.8598 261.148 10.8598 261.215 10.8598C261.282 10.8463 261.336 10.8396 261.377 10.8396C261.377 10.8396 261.282 10.7992 261.094 10.7184C260.905 10.6376 260.777 10.577 260.71 10.5366C261.033 10.2538 261.323 9.94407 261.579 9.6074C261.834 9.27073 262.111 8.95427 262.407 8.658C262.366 8.456 262.272 8.30787 262.124 8.2136C261.976 8.11933 261.895 7.95773 261.882 7.7288C262.218 7.74227 262.589 7.77593 262.993 7.8298C263.397 7.88367 263.747 7.99813 264.043 8.1732C264.353 8.3348 264.508 8.6176 264.508 9.0216C264.077 9.27747 263.666 9.60067 263.275 9.9912C262.898 10.3683 262.461 10.6511 261.962 10.8396C262.299 10.8665 262.582 10.8531 262.811 10.7992C263.04 10.7453 263.248 10.6847 263.437 10.6174C263.599 10.5635 263.753 10.5231 263.902 10.4962C264.063 10.4558 264.238 10.4491 264.427 10.476C264.71 10.5703 265.006 10.6713 265.316 10.779C265.639 10.8733 265.922 11.0079 266.164 11.183C266.42 11.3446 266.588 11.587 266.669 11.9102ZM259.882 12.0314C259.06 12.0987 258.232 12.1526 257.397 12.193C256.576 12.2199 255.795 12.294 255.054 12.4152C255.337 12.496 255.546 12.6509 255.68 12.8798C255.815 13.0953 255.923 13.3377 256.003 13.607C256.084 13.8763 256.185 14.1322 256.306 14.3746C256.778 14.3611 257.242 14.3477 257.7 14.3342C258.158 14.3207 258.596 14.2871 259.013 14.2332C259.148 13.8561 259.296 13.4925 259.458 13.1424C259.633 12.7788 259.774 12.4085 259.882 12.0314ZM257.236 19.869C256.657 20.1922 256.064 20.5558 255.458 20.9598C254.852 21.3638 254.28 21.7543 253.741 22.1314C254.226 22.3199 254.751 22.4277 255.317 22.4546C255.882 22.4815 256.428 22.4681 256.953 22.4142C257.182 22.1449 257.296 21.7611 257.296 21.2628C257.296 20.7511 257.276 20.2865 257.236 19.869Z" fill="#B92323"/>
<defs>
<linearGradient id="paint0_linear_267_5876" x1="59.3298" y1="85.672" x2="56.7235" y2="1.7613" gradientUnits="userSpaceOnUse">
<stop stop-color="#E70101"/>
<stop offset="1" stop-color="#733434"/>
</linearGradient>
<linearGradient id="paint1_linear_267_5876" x1="182" y1="-8" x2="145" y2="141.5" gradientUnits="userSpaceOnUse">
<stop stop-color="#E6E6E6"/>
<stop offset="0.589143" stop-color="white"/>
<stop offset="1" stop-color="#E6E6E6"/>
</linearGradient>
</defs>
</svg>