<svg width="267" height="201" viewBox="0 0 267 201" fill="none" xmlns="http://www.w3.org/2000/svg">
<path d="M157.541 4.10258C157.189 4.11352 156.146 4.60164 154.412 5.56648C151.64 7.1709 147.478 9.42584 141.925 12.3313C136.714 14.9224 131.147 17.3731 125.222 19.6827C119.641 21.6781 114.912 22.736 111.036 22.8563C111.426 24.0589 110.068 25.7714 106.963 27.9936C103.857 30.2156 100.571 32.2917 97.1035 34.2214C93.9792 35.8368 91.7126 36.6661 90.3031 36.7099C85.149 41.1217 79.1095 45.4086 72.1845 49.5717C65.6026 53.4201 59.3866 57.7129 53.5376 62.4495C48.0316 66.8719 44.3252 72.4529 42.4183 79.1932C39.6553 81.101 36.3881 83.7839 32.6157 87.2413C29.1951 90.6879 28.061 93.9118 29.2124 96.9127C24.364 99.7962 20.9722 104.153 19.0365 109.983C17.1013 115.813 15.5138 121.48 14.2739 126.985C13.377 132.175 11.19 135.583 7.71341 137.21C8.86476 140.211 9.2972 142.778 9.0108 144.913C8.37203 147.059 7.73325 149.204 7.09447 151.349C6.42742 152.585 5.9368 153.815 5.62213 155.039C5.29803 155.96 4.98335 157.185 4.67809 158.712C8.48451 167.705 12.2438 175.18 15.956 181.138C19.6681 187.096 26.1621 191.753 35.4368 195.109C37.1704 194.144 39.2799 193.927 41.7653 194.457C44.5942 194.673 47.4274 195.04 50.2652 195.559C53.8171 196.36 57.1885 197.014 60.3787 197.523C63.5594 197.728 65.8265 196.898 67.1795 195.034C78.9114 198.01 90.0443 198.727 100.578 197.185C111.455 195.329 122.67 193.007 134.223 190.218C140.166 188.516 146.467 186.953 153.124 185.532C159.782 184.11 166.796 182.83 174.168 181.69C175.178 180.14 175.664 178.758 175.626 177.545C191.056 174.636 205.334 168.727 218.46 159.816C231.578 150.602 243.828 141.871 255.211 133.622C255.498 131.487 255.96 129.347 256.599 127.201C257.59 125.045 258.405 122.894 259.044 120.749C261.341 115.211 262.767 110.004 263.321 105.128C264.227 100.241 261.643 96.5259 255.567 93.9817C256.206 91.8357 256.269 88.1898 255.757 83.0434C255.235 77.5937 254.356 72.003 253.12 66.2713C252.236 60.5292 251.051 56.4663 249.566 54.0831C247.682 50.194 244.541 45.5845 240.143 40.2552C236.097 34.9149 231.884 29.883 227.505 25.1604C223.116 20.1345 219.122 16.4625 215.523 14.145C212.981 11.7946 209.572 9.92646 205.297 8.54095C201.021 7.15543 196.94 6.37119 193.055 6.18822C193.008 4.67135 190.156 3.69689 184.498 3.26528C179.194 2.82272 173.547 2.69445 167.556 2.88053C161.918 3.05565 158.579 3.46301 157.541 4.10258ZM177.672 39.0069C178.776 40.4909 180.433 42.7171 182.642 45.6852C184.841 48.3499 187.554 50.5433 190.782 52.265C194.01 53.9867 197.548 54.3325 201.396 53.302C201.119 55.7399 201.352 57.5547 202.094 58.7463C202.837 59.9379 203.751 60.9725 204.836 61.8498C205.198 62.1423 205.383 62.4402 205.393 62.7435C209.391 66.567 212.376 71.7886 214.345 78.408C216.314 85.0275 218.121 92.1077 219.766 99.6486C221.402 106.886 223.38 113.809 225.702 120.418C214.004 129.891 198.396 138.423 178.88 146.014C159.706 153.29 139.243 158.784 117.49 162.497C96.0887 166.198 75.8548 167.738 56.7886 167.115C55.6844 165.631 54.9325 164.136 54.533 162.63C54.4859 161.113 54.6105 159.439 54.9064 157.608C54.8687 156.395 54.8263 155.029 54.7792 153.512C54.732 151.996 54.5085 150.484 54.109 148.978C51.633 148.751 49.8381 147.744 48.7245 145.957C47.6014 143.866 48.0873 142.484 50.1827 141.812C53.2415 138.073 57.3097 132.784 62.388 125.946C67.4568 118.804 72.0303 112.74 76.108 107.755C76.0797 106.845 76.0373 105.479 75.9808 103.659C76.2389 100.614 76.4924 97.4177 76.7411 94.0697C76.9898 90.7217 78.148 88.2564 80.2151 86.6739C80.9387 87.2587 81.5005 88.3039 81.9 89.8102C82.29 91.0128 82.6754 92.0634 83.056 92.9626C83.7796 93.5474 85.1938 93.6555 87.2986 93.2865C88.2426 89.6132 91.6391 85.408 97.4881 80.6714C103.328 75.6309 109.177 70.8943 115.035 66.4611C121.237 61.713 124.653 58.115 125.282 55.6662C128.463 55.871 131.268 55.3282 133.697 54.0381C136.468 52.4337 139.235 50.6774 141.998 48.7696C144.761 46.8618 147.533 45.2574 150.314 43.9563C153.438 42.3409 156.619 42.5458 159.856 44.5709C160.82 41.5044 162.353 39.7863 164.458 39.4173C166.563 39.0483 169.029 38.9717 171.858 39.1874C174.334 39.4142 176.272 39.354 177.672 39.0069ZM223.856 129.129C224.237 130.029 225.132 130.457 226.541 130.413C227.951 130.369 228.508 131.263 228.212 133.094C216.114 141.061 203.956 147.057 191.735 151.08C179.858 154.79 166.075 159.621 150.388 165.575C150.017 164.979 149.117 164.399 147.689 163.836C146.975 163.555 146.436 163.268 146.075 162.975C146.056 162.369 146.909 161.431 148.633 160.163C156.338 158.405 164.715 155.564 173.764 151.639C182.812 147.714 191.68 143.642 200.367 139.425C209.407 135.196 217.236 131.764 223.856 129.129Z" fill="url(#paint0_linear_243_7562)"/>
<path d="M236 133.095C235.472 133.673 235.023 134.094 234.652 134.357C234.283 134.62 233.886 134.831 233.463 134.989C233.093 135.146 232.564 135.436 231.877 135.857C231.508 137.593 231.323 139.382 231.323 141.223C231.323 143.065 231.349 144.879 231.402 146.669C231.508 149.089 231.508 151.482 231.402 153.85C231.349 156.165 230.847 158.348 229.895 160.4C229.684 160.663 229.499 160.795 229.341 160.795C229.235 160.795 229.103 160.795 228.944 160.795C228.68 160.689 228.443 160.742 228.231 160.952C227.596 160.479 227.015 159.953 226.486 159.374C225.958 158.796 225.614 158.032 225.456 157.085C224.346 157.401 223.077 157.559 221.651 157.559C220.277 157.559 218.823 157.532 217.29 157.481C215.44 157.375 213.59 157.348 211.74 157.401C209.891 157.454 208.279 157.822 206.905 158.506C205.477 157.769 204.421 156.665 203.734 155.192C203.046 153.718 202.28 152.324 201.434 151.009C202.015 150.588 202.412 149.93 202.624 149.036C202.887 148.089 203.046 147.274 203.099 146.59C202.042 146.432 201.117 146.537 200.324 146.905C199.584 147.274 198.924 147.774 198.343 148.405C197.602 149.246 196.915 150.194 196.281 151.245C195.699 152.298 195.092 153.245 194.458 154.087C196.096 154.718 197.708 155.481 199.293 156.375C200.879 157.269 202.544 158.138 204.288 158.98C206.033 159.821 207.935 160.479 209.996 160.952C211.74 161.373 213.485 161.636 215.229 161.742C217.026 161.794 218.77 161.9 220.461 162.057C222.205 162.216 223.871 162.584 225.456 163.162C226.513 163.531 227.518 164.056 228.468 164.74C229.42 165.424 230.451 165.819 231.561 165.924C231.93 166.871 232.671 167.608 233.78 168.134C233.78 169.028 233.965 169.66 234.336 170.028C234.283 170.555 233.992 170.975 233.463 171.29C232.988 171.659 232.512 171.974 232.036 172.238C231.614 172.501 231.376 172.79 231.323 173.106C227.518 174.158 224.055 174.421 220.937 173.895C217.819 173.422 214.753 172.79 211.74 172.001C211.424 171.896 211.08 171.79 210.71 171.686C210.393 171.633 210.049 171.554 209.679 171.449C209.204 170.659 208.437 170.002 207.381 169.475C206.376 168.95 205.398 168.397 204.447 167.819C203.549 167.187 202.993 166.371 202.782 165.372C200.774 164.319 198.818 163.188 196.915 161.979C195.065 160.768 193.136 159.611 191.127 158.506C189.225 160.663 187.269 162.82 185.261 164.977C183.253 167.082 181.059 169.002 178.681 170.739C176.356 172.474 173.686 173.895 170.674 175C170.356 174.684 169.96 174.447 169.484 174.29C169.062 174.184 168.639 174.026 168.216 173.816C167.793 173.606 167.503 173.185 167.343 172.554C167.661 172.501 167.925 172.395 168.137 172.238C168.401 172.08 168.666 171.922 168.929 171.764C169.247 171.501 169.564 171.29 169.881 171.133C170.198 170.975 170.541 170.975 170.912 171.133C172.603 169.502 174.346 167.845 176.144 166.161C177.993 164.478 179.738 162.688 181.376 160.795C183.068 158.848 184.495 156.691 185.658 154.324C185.023 153.429 184.257 152.64 183.359 151.956C182.512 151.272 181.693 150.588 180.901 149.904C179.738 150.641 178.628 151.535 177.571 152.587C176.514 153.587 175.431 154.534 174.321 155.429C173.21 156.27 171.995 156.822 170.674 157.085C170.515 156.981 170.356 156.928 170.198 156.928C170.039 156.875 169.854 156.848 169.643 156.848C169.273 156.797 168.903 156.717 168.533 156.612C168.216 156.507 168.004 156.217 167.899 155.744C170.594 153.429 173.105 150.904 175.431 148.168C177.756 145.432 179.95 142.617 182.011 139.723C181.693 139.25 181.297 139.039 180.821 139.092C180.346 139.092 179.87 139.171 179.394 139.329C179.183 139.382 178.971 139.435 178.76 139.487C178.549 139.487 178.337 139.487 178.126 139.487C178.02 139.487 177.835 139.408 177.571 139.25C177.201 138.987 176.937 138.882 176.778 138.935C176.461 138.987 176.144 139.092 175.827 139.25C175.562 139.408 175.298 139.592 175.034 139.803C174.717 140.013 174.399 140.197 174.083 140.355C173.818 140.513 173.501 140.591 173.131 140.591C172.549 140.539 171.915 140.25 171.228 139.723C170.594 139.198 170.039 138.751 169.564 138.382C169.405 138.277 169.167 138.119 168.85 137.909C168.322 137.593 167.846 137.251 167.423 136.883C167 136.462 166.894 135.857 167.106 135.068C167.476 135.12 167.661 134.936 167.661 134.515C169.353 134.831 171.387 134.936 173.765 134.831C176.144 134.726 178.575 134.515 181.059 134.199C183.543 133.831 185.79 133.463 187.798 133.095C187.851 132.148 187.771 131.332 187.56 130.648C187.402 130.701 187.19 130.727 186.926 130.727C186.662 130.727 186.371 130.727 186.054 130.727C185.049 130.727 183.887 130.806 182.565 130.964C181.297 131.069 180.293 131.516 179.552 132.305C178.284 132.253 177.333 131.911 176.699 131.28C176.065 130.648 175.483 129.938 174.955 129.149C174.479 128.36 173.792 127.755 172.893 127.334C172.893 126.86 173.052 126.65 173.369 126.702C173.739 126.702 173.95 126.466 174.003 125.992C175.008 126.571 176.223 126.834 177.65 126.781C179.13 126.676 180.637 126.544 182.169 126.387C182.962 126.281 183.755 126.202 184.547 126.15C185.34 126.045 186.081 125.992 186.768 125.992C186.926 125.676 186.979 125.361 186.926 125.045C186.926 124.677 186.899 124.335 186.846 124.019C186.793 123.756 186.768 123.572 186.768 123.467C185.446 123.361 184.019 123.335 182.487 123.388C180.953 123.388 179.79 123.703 178.998 124.335C177.624 123.23 176.434 121.967 175.431 120.547C174.479 119.126 173.712 117.627 173.131 116.048C173.607 116.154 174.056 116.285 174.479 116.443C174.955 116.548 175.404 116.653 175.827 116.759C177.518 117.232 179.209 117.627 180.901 117.942C182.645 118.258 184.6 118.179 186.768 117.706C187.137 115.917 187.084 114.47 186.609 113.365C186.133 112.208 185.578 111.129 184.944 110.13C184.574 109.551 184.231 108.972 183.913 108.393C183.597 107.815 183.332 107.157 183.121 106.421C183.226 106.052 183.385 105.868 183.597 105.868C183.86 105.868 184.098 105.842 184.309 105.789C184.574 105.684 184.733 105.421 184.785 105C186.53 105.579 188.089 106.315 189.463 107.21C190.89 108.104 192.185 109.104 193.348 110.208C193.242 111.366 193.162 112.418 193.11 113.365C193.057 114.312 193.057 115.391 193.11 116.601C193.533 116.548 193.956 116.417 194.378 116.206C194.854 115.943 195.33 115.812 195.806 115.812C197.18 115.812 198.554 116.259 199.928 117.153C201.302 117.995 202.438 118.916 203.336 119.915C202.914 120.915 202.174 121.494 201.117 121.652C200.113 121.809 199.003 121.915 197.787 121.967C197.1 121.967 196.387 121.994 195.646 122.046C194.959 122.046 194.299 122.151 193.665 122.362C193.242 122.572 192.951 122.914 192.793 123.388C192.634 123.809 192.555 124.308 192.555 124.887C193.982 124.624 195.673 124.756 197.629 125.282C199.584 125.755 201.302 126.439 202.782 127.334C202.2 128.281 201.328 128.938 200.165 129.307C199.003 129.675 197.708 129.912 196.281 130.017C194.854 130.122 193.427 130.227 192 130.333C191.841 130.701 191.709 131.148 191.603 131.674C191.498 132.2 191.445 132.595 191.445 132.858C193.718 132.384 195.858 132.332 197.867 132.7C199.928 133.068 201.83 133.752 203.574 134.752C203.627 133.857 203.496 133.174 203.178 132.7C202.862 132.227 202.491 131.806 202.068 131.437C201.857 131.227 201.646 131.016 201.434 130.806C201.223 130.596 201.038 130.359 200.879 130.096C201.566 129.885 201.937 129.517 201.989 128.991C202.042 128.991 202.121 128.991 202.227 128.991C202.702 128.938 203.231 128.938 203.812 128.991C204.394 128.991 204.87 129.254 205.24 129.78C206.296 129.675 207.116 129.122 207.697 128.123C208.331 127.071 208.992 126.071 209.679 125.124C209.785 125.019 209.865 124.887 209.917 124.729C210.023 124.571 210.128 124.44 210.234 124.335C210.763 123.651 211.239 122.967 211.662 122.283C212.084 121.546 212.084 120.941 211.662 120.468C211.186 120.415 210.737 120.415 210.314 120.468C209.943 120.468 209.574 120.494 209.204 120.547C208.78 120.599 208.331 120.652 207.856 120.705C207.381 120.757 206.799 120.757 206.111 120.705C205.424 119.758 204.579 118.968 203.574 118.337C202.571 117.653 201.857 116.706 201.434 115.496C201.646 115.338 201.963 115.286 202.386 115.338C202.809 115.338 203.205 115.47 203.574 115.733C205.584 115.943 207.539 115.943 209.441 115.733C211.397 115.47 213.326 115.18 215.229 114.865C216.127 114.707 217.052 114.575 218.004 114.47C218.955 114.312 219.88 114.181 220.778 114.075C221.571 113.602 222.576 113.418 223.791 113.523C225.007 113.576 226.17 113.865 227.28 114.391C228.443 114.865 229.314 115.522 229.895 116.364C230.53 117.153 230.636 118.048 230.213 119.047C227.623 118.995 225.35 119.047 223.395 119.205C221.492 119.31 219.457 119.495 217.29 119.758C217.026 119.758 216.761 119.784 216.497 119.836C216.286 119.836 216.048 119.863 215.783 119.915C215.836 120.126 215.943 120.336 216.101 120.547C216.259 120.757 216.445 120.968 216.656 121.178C217.132 121.704 217.528 122.309 217.845 122.993C218.162 123.624 218.03 124.335 217.449 125.124C216.656 125.071 216.021 125.334 215.546 125.913C215.071 126.439 214.7 126.939 214.436 127.413C214.277 127.623 214.172 127.781 214.119 127.886L217.528 127.965C218.585 128.018 219.59 127.939 220.54 127.728C221.492 127.518 222.205 127.018 222.681 126.229C223.897 126.913 225.165 127.439 226.486 127.807C227.808 128.123 229.103 128.465 230.371 128.833C231.639 129.201 232.75 129.701 233.701 130.333C234.705 130.964 235.472 131.885 236 133.095ZM225.218 154.087C225.483 150.614 225.561 147.01 225.456 143.275C225.35 139.487 225.165 135.909 224.901 132.542C223.633 131.911 222.364 131.727 221.096 131.99C221.889 132.674 222.338 133.437 222.443 134.278C222.602 135.068 222.602 136.067 222.443 137.277C222.338 138.382 222.285 139.566 222.285 140.828C222.285 142.091 222.311 143.38 222.364 144.695C222.417 146.326 222.443 147.931 222.443 149.51C222.443 151.035 222.338 152.456 222.126 153.771C222.443 153.718 222.708 153.718 222.919 153.771C223.13 153.824 223.342 153.877 223.553 153.929C223.818 153.981 224.055 154.034 224.267 154.087C224.531 154.139 224.848 154.139 225.218 154.087ZM203.574 136.172C202.148 136.909 200.403 137.356 198.343 137.514C196.333 137.672 194.272 137.777 192.159 137.83C190.044 137.882 188.142 138.145 186.45 138.619C186.609 138.987 186.873 139.408 187.243 139.882C187.666 140.303 188.142 140.618 188.67 140.828C191.736 140.092 194.378 139.882 196.598 140.197C198.871 140.46 201.196 141.407 203.574 143.039V136.172ZM210.552 153.534C210.181 152.429 210.023 151.114 210.076 149.589C210.128 148.01 210.234 146.379 210.393 144.695C210.393 144.538 210.393 144.38 210.393 144.222C210.446 144.011 210.472 143.801 210.472 143.591C210.63 141.591 210.657 139.697 210.552 137.909C210.499 136.12 209.943 134.699 208.887 133.647C208.833 133.857 208.543 133.963 208.015 133.963C208.015 136.172 207.988 138.461 207.935 140.828C207.882 143.143 207.803 145.326 207.697 147.378C207.644 149.378 207.592 151.009 207.539 152.272C207.486 153.481 207.459 154.087 207.459 154.087C207.671 153.981 207.908 153.929 208.173 153.929C208.49 153.877 208.807 153.85 209.124 153.85C209.441 153.85 209.732 153.85 209.996 153.85C210.261 153.85 210.446 153.745 210.552 153.534ZM192.237 144.695C192.026 144.748 191.736 144.801 191.365 144.854C190.309 145.011 189.278 145.142 188.274 145.248C187.322 145.353 186.265 145.274 185.103 145.011C184.68 145.642 184.204 146.247 183.675 146.826C183.199 147.352 182.75 147.931 182.327 148.562C183.49 148.878 184.468 149.352 185.261 149.983C186.107 150.614 187.137 151.061 188.353 151.325C188.723 150.588 189.199 149.878 189.78 149.194C190.415 148.458 190.969 147.721 191.445 146.984C191.974 146.247 192.237 145.485 192.237 144.695ZM218.558 153.771C218.347 153.034 218.189 152.272 218.083 151.482C217.977 150.694 217.951 149.799 218.004 148.799C217.317 148.746 216.63 148.773 215.943 148.878C215.308 148.93 214.7 149.01 214.119 149.115C214.224 149.536 214.251 149.957 214.198 150.378C214.146 150.798 214.093 151.193 214.039 151.561C213.934 152.035 213.855 152.482 213.802 152.903C213.802 153.324 213.908 153.718 214.119 154.087C214.436 153.877 214.833 153.771 215.309 153.771C215.783 153.771 216.286 153.771 216.815 153.771C217.132 153.771 217.422 153.797 217.686 153.85C218.004 153.85 218.294 153.824 218.558 153.771ZM218.321 138.066C218.321 137.856 218.321 137.672 218.321 137.514C218.321 137.304 218.321 137.119 218.321 136.962C218.321 135.962 218.242 135.041 218.083 134.199C217.977 133.358 217.581 132.805 216.894 132.542C216.735 132.7 216.524 132.779 216.259 132.779C215.996 132.779 215.705 132.779 215.387 132.779C214.965 132.779 214.568 132.805 214.198 132.858C213.881 132.91 213.67 133.095 213.564 133.41C214.251 133.779 214.674 134.41 214.833 135.304C215.044 136.146 215.097 137.172 214.991 138.382C215.361 138.435 215.678 138.435 215.943 138.382C216.207 138.329 216.445 138.277 216.656 138.224C216.92 138.172 217.158 138.119 217.369 138.066C217.633 138.014 217.951 138.014 218.321 138.066ZM218.321 141.381C218.004 141.381 217.713 141.407 217.449 141.46C217.184 141.512 216.92 141.565 216.656 141.618C216.339 141.671 215.996 141.723 215.625 141.775C215.309 141.828 214.911 141.802 214.436 141.697V145.485H218.004C218.004 145.432 218.03 145.326 218.083 145.169C218.136 144.695 218.189 144.17 218.242 143.591C218.347 142.959 218.374 142.223 218.321 141.381Z" fill="url(#paint1_linear_243_7562)"/>
<path d="M174.677 146.062C174.893 146.926 174.624 147.682 173.868 148.331C173.222 148.871 172.575 149.303 171.928 149.628C171.281 150.06 170.796 150.438 170.473 150.762C170.258 150.978 170.474 151.248 171.12 151.573C169.396 151.897 167.726 152.437 166.109 153.193C164.492 154.058 162.929 154.545 161.421 154.653C156.786 154.977 152.367 154.058 148.164 151.897C144.069 149.843 140.782 147.682 138.303 145.413C133.561 140.982 128.818 136.497 124.076 131.958C119.442 127.419 114.862 122.826 110.335 118.18C110.227 119.801 110.227 121.692 110.335 123.853C110.443 126.015 110.604 128.338 110.82 130.824C111.251 135.038 111.52 139.469 111.628 144.116C111.844 148.655 111.52 152.87 110.658 156.76C109.796 160.651 108.018 163.731 105.323 166C99.1802 164.379 93.5759 162.217 88.5104 159.516C83.445 156.815 78.7028 153.788 74.2841 150.438V148.007C72.5597 147.575 71.1048 146.818 69.9193 145.737C68.8414 144.657 67.2788 144.062 65.2309 143.954C68.7876 144.062 72.0747 144.548 75.0924 145.413C78.2179 146.277 81.4511 147.142 84.7922 148.007C88.1332 148.871 91.9053 149.357 96.1086 149.466C97.5097 147.412 98.3718 144.711 98.6952 141.361C99.0186 137.902 99.0724 134.282 98.8569 130.499C98.6414 126.717 98.3718 123.367 98.0486 120.449C95.2464 120.773 92.8753 121.854 90.9353 123.691C89.1032 125.528 87.3249 127.311 85.6005 129.041C83.8761 130.77 81.8284 131.742 79.4573 131.958C79.5651 132.715 79.5112 133.201 79.2956 133.417C79.0801 133.525 78.8107 133.579 78.4873 133.579C78.1641 133.687 77.8407 133.85 77.5174 134.066C77.3018 134.174 77.194 134.66 77.194 135.525C74.4996 136.497 72.1286 137.794 70.0808 139.416C68.1409 140.928 66.2548 142.549 64.4226 144.278C61.6205 146.763 58.5489 149.087 55.2078 151.248C51.9746 153.302 47.3403 154.275 41.3049 154.167C39.9038 153.302 38.6105 152.437 37.4249 151.573C36.3472 150.817 35.5389 149.79 35 148.493C45.2387 144.387 54.3457 139.253 62.3211 133.093C70.2965 126.825 77.733 120.125 84.6305 112.992C81.505 113.533 78.1641 114.019 74.6074 114.451C71.1586 114.775 67.8714 115.37 64.746 116.234C61.6205 116.991 59.0338 118.396 56.9861 120.449C53.3218 119.801 49.7652 118.612 46.3164 116.883C42.8676 115.045 39.5266 113.154 36.2933 111.209C37.3711 110.02 38.4488 109.372 39.5266 109.264C40.7121 109.156 42.0054 109.156 43.4065 109.264C44.0531 109.264 44.6998 109.264 45.3464 109.264C46.1009 109.264 46.9092 109.264 47.7713 109.264C51.5435 108.291 56.124 107.535 61.5128 106.994C66.9015 106.346 72.1825 105.805 77.3557 105.373C80.1579 105.157 83.4989 104.887 87.3789 104.563C91.2587 104.13 94.4381 103.914 96.9169 103.914C97.1324 103.374 97.1324 102.509 96.9169 101.321C96.8092 100.024 96.5937 98.8351 96.2703 97.7543C95.4081 97.214 94.3843 96.9979 93.1987 97.1059C92.0132 97.1059 90.7198 97.1599 89.3187 97.268C87.0555 97.5923 84.7922 97.6463 82.5289 97.4302C80.2656 97.1059 78.649 95.593 77.679 92.8912C77.0324 89.8652 76.6551 86.5691 76.5474 83.0028C76.5474 79.3285 76.6013 75.492 76.709 71.4934C76.709 68.5755 76.709 65.5495 76.709 62.4156C76.8168 59.2815 76.763 56.0394 76.5474 52.6892C75.6851 51.5005 74.6613 50.5279 73.4757 49.7714C72.398 48.9069 71.2125 48.0964 69.9193 47.3399C70.458 46.2591 70.7276 45.4486 70.7276 44.9083C70.7276 44.3679 70.8353 43.6114 71.0508 42.6388C73.0985 41.6662 75.0924 41.1798 77.0324 41.1798C78.9724 41.0718 80.8045 40.9637 82.5289 40.8557C84.3611 40.7476 85.9238 40.2613 87.2172 39.3967C89.3727 37.8838 90.8815 35.8305 91.7437 33.2368C92.6059 30.6431 93.8992 28.1574 95.6237 25.7799C95.0847 25.2396 94.4381 24.6993 93.6837 24.1589C93.037 23.6186 92.2826 23.0782 91.4204 22.5379C90.127 21.7814 88.9415 20.9708 87.8638 20.1063C86.8938 19.2417 86.4089 18.2151 86.4089 17.0263C87.271 15.4053 88.5104 14.7568 90.127 15.0811C91.8515 15.2972 93.4143 15.6754 94.8153 16.2158C98.4797 15.2432 101.659 15.4053 104.353 16.7021C107.156 17.8909 109.473 19.62 111.305 21.8894C110.766 25.2396 109.473 27.9954 107.425 30.1567C105.485 32.3181 103.815 34.7497 102.414 37.4515C104.461 37.4515 106.455 37.3974 108.395 37.2894C110.335 37.1813 112.221 37.0191 114.053 36.803C117.61 36.5869 121.005 36.4789 124.238 36.4789C127.471 36.3707 130.489 36.8571 133.291 37.9378C136.201 39.0184 138.842 41.0718 141.213 44.0978C140.35 43.8817 139.919 43.9357 139.919 44.2598C140.027 44.476 140.296 44.8002 140.728 45.2324C141.051 45.7728 141.374 46.3672 141.698 47.0156C142.021 47.556 142.075 48.1504 141.859 48.7988C138.734 49.5553 136.47 51.2843 135.069 53.9861C133.776 56.6878 133.022 59.9299 132.806 63.7124C132.591 67.4948 132.483 71.4394 132.483 75.546C132.591 79.7607 132.483 83.8673 132.159 87.8659C131.944 91.8645 130.974 95.0526 129.249 97.4302C127.633 97.5382 126.232 97.4842 125.046 97.268C123.861 97.0519 122.675 96.7816 121.49 96.4575C119.981 96.0252 118.256 95.647 116.316 95.3227C114.377 94.9986 111.79 95.0526 108.557 95.4849C108.988 96.0252 109.257 96.5655 109.365 97.1059C109.473 97.5382 109.473 97.9704 109.365 98.4028C109.365 98.7269 109.365 99.1052 109.365 99.5375C109.473 99.9697 109.634 100.402 109.85 100.834C111.467 101.591 113.514 102.023 115.993 102.131C118.58 102.131 121.274 102.023 124.076 101.807C125.585 101.807 127.094 101.753 128.603 101.645C130.112 101.537 131.567 101.537 132.968 101.645C135.985 101.753 139.003 101.699 142.021 101.483C145.146 101.267 147.733 100.456 149.781 99.0512C152.26 99.4835 154.954 100.024 157.864 100.672C160.882 101.213 163.683 102.185 166.27 103.59C168.857 104.995 170.689 107.156 171.767 110.074C170.582 110.182 169.611 110.615 168.857 111.371C168.211 112.019 166.97 112.398 165.139 112.506C161.474 112.722 157.648 112.722 153.661 112.506C149.673 112.182 145.739 111.857 141.859 111.533C137.225 111.209 132.698 110.939 128.279 110.723C123.861 110.398 119.657 110.452 115.67 110.885C118.257 114.343 121.597 117.153 125.693 119.314C129.788 121.368 134.207 123.205 138.949 124.826C143.691 126.339 148.38 127.96 153.014 129.689C157.757 131.31 162.013 133.417 165.785 136.011C169.666 138.497 172.629 141.847 174.677 146.062ZM116.963 86.0828C116.963 85.0021 116.963 83.9215 116.963 82.8407C117.071 81.6519 117.179 80.4631 117.287 79.2744C117.502 74.4112 117.664 69.1159 117.771 63.3882C117.879 57.5525 117.61 51.9868 116.963 46.6915C114.484 45.7188 111.628 45.3406 108.395 45.5567C105.162 45.7728 101.928 46.2051 98.6952 46.8535C95.5697 47.502 92.8215 48.2044 90.4504 48.9609C90.5582 50.1497 90.5582 51.5005 90.4504 53.0135C90.3426 54.5264 90.2349 56.0934 90.127 57.7145C90.0193 58.7953 89.9115 59.8759 89.8038 60.9566C89.8038 61.9292 89.8038 62.8478 89.8038 63.7124C92.7137 62.7397 95.9469 62.2535 99.5035 62.2535C103.168 62.2535 106.509 62.6317 109.527 63.3882C112.652 64.1446 114.862 65.3334 116.155 66.9544C113.137 68.3594 109.203 69.386 104.353 70.0345C99.5035 70.5748 94.7614 71.2232 90.127 71.9797C90.0193 72.9523 89.9655 74.1951 89.9655 75.7081C89.9655 77.1131 89.9655 78.626 89.9655 80.247C89.9655 81.6519 89.9655 83.1109 89.9655 84.6239C90.0732 86.0288 90.0732 87.3257 89.9655 88.5143C91.7976 88.5143 93.5759 88.4603 95.3003 88.3523C97.1324 88.1362 98.9108 87.9741 100.635 87.8659C102.36 87.6498 104.03 87.4877 105.647 87.3797C107.371 87.1635 109.149 87.0554 110.982 87.0554C111.305 87.0554 111.844 87.1094 112.598 87.2175C113.46 87.3257 114.323 87.3797 115.185 87.3797C116.047 87.2715 116.64 86.8393 116.963 86.0828ZM175 46.043C171.875 46.7995 169.126 47.9342 166.755 49.4472C164.492 50.9602 162.337 52.5272 160.289 54.1483C157.486 56.4177 154.631 58.3089 151.721 59.8219C148.918 61.3348 145.47 61.6051 141.374 60.6324C140.943 60.7404 140.512 60.7945 140.081 60.7945C139.758 60.7945 139.38 60.7945 138.949 60.7945C138.195 60.6864 137.602 60.6324 137.171 60.6324C139.865 56.9581 143.045 53.77 146.709 51.0682C150.374 48.3665 153.768 45.3946 156.894 42.1525C156.463 41.6121 155.762 41.1258 154.792 40.6936C153.822 40.2613 152.906 39.7209 152.044 39.0725C151.29 38.316 150.858 37.1813 150.751 35.6683C154.415 35.3441 157.971 35.5062 161.421 36.1546C164.977 36.695 167.995 37.7756 170.473 39.3967C172.953 41.0177 174.461 43.2331 175 46.043ZM72.1825 78.7881C71.428 80.9495 70.1886 82.8407 68.4642 84.4617C66.8476 86.0828 65.1232 87.7038 63.2911 89.3248C61.5666 90.8379 60.0578 92.4589 58.7645 94.1881C57.4712 95.9171 56.7706 97.9704 56.6629 100.348C51.3818 101.321 47.1247 100.78 43.8915 98.7269C40.766 96.5655 38.1255 93.4316 35.97 89.3248C36.94 89.1087 37.856 89.1087 38.7183 89.3248C39.6882 89.433 40.6043 89.5951 41.4665 89.8112C42.1132 90.0274 42.7598 90.1895 43.4065 90.2975C44.1609 90.4056 44.9153 90.4056 45.6698 90.2975C46.9631 89.9734 48.3103 89.1628 49.7113 87.8659C51.2201 86.461 52.6752 84.894 54.0763 83.1649C55.4774 81.4358 56.8245 79.8687 58.1178 78.4638C59.5189 77.0589 60.7583 76.1944 61.836 75.8703C62.9138 75.546 63.8838 75.546 64.746 75.8703C65.716 76.0864 66.7399 76.4647 67.8176 77.0049C68.4642 77.3292 69.1109 77.6533 69.7576 77.9776C70.512 78.3018 71.3203 78.572 72.1825 78.7881ZM169.181 95.1606C166.054 96.2414 163.091 96.2414 160.289 95.1606C157.595 94.08 155.008 92.7832 152.529 91.2701C151.882 90.8379 151.182 90.4596 150.427 90.1354C149.781 89.7031 149.134 89.3248 148.487 89.0007C148.056 84.3537 146.655 80.6793 144.284 77.9776C141.913 75.1678 139.596 72.3579 137.333 69.5481C137.225 68.8997 137.387 68.5215 137.818 68.4135C142.668 69.0619 147.356 70.5748 151.882 72.9523C156.517 75.2218 160.397 78.2477 163.522 82.0302C166.755 85.8126 168.641 90.1895 169.181 95.1606ZM67.0093 64.5229C66.9015 64.631 66.7399 64.739 66.5243 64.8471C65.7699 65.1713 64.8537 65.4955 63.776 65.8198C62.6983 66.0359 61.1894 65.9278 59.2494 65.4955C57.4172 65.0633 54.7768 64.0366 51.328 62.4156C49.6035 59.0654 48.0409 55.8233 46.6397 52.6892C45.2387 49.5553 43.2987 47.1237 40.8199 45.3946C45.8853 44.4219 50.3041 44.9083 54.0763 46.8535C57.9561 48.6906 61.0277 51.2843 63.2911 54.6345C65.662 57.8766 66.9015 61.1728 67.0093 64.5229Z" fill="url(#paint2_linear_243_7562)"/>
<defs>
<linearGradient id="paint0_linear_243_7562" x1="136.126" y1="196.567" x2="130.147" y2="4.04248" gradientUnits="userSpaceOnUse">
<stop stop-color="#E70101"/>
<stop offset="1" stop-color="#733434"/>
</linearGradient>
<linearGradient id="paint1_linear_243_7562" x1="145" y1="122" x2="286.5" y2="222.5" gradientUnits="userSpaceOnUse">
<stop stop-color="white"/>
<stop offset="1" stop-color="#DCDCDC"/>
</linearGradient>
<linearGradient id="paint2_linear_243_7562" x1="6.5" y1="-53.5" x2="220.515" y2="180.443" gradientUnits="userSpaceOnUse">
<stop offset="0.203743" stop-color="#E8E8E8"/>
<stop offset="0.820759" stop-color="#FAFAFA"/>
<stop offset="0.863571" stop-color="#FBFBFB"/>
<stop offset="1" stop-color="white"/>
</linearGradient>
</defs>
</svg>
